<svg xmlns="http://www.w3.org/2000/svg" width="15" height="13" viewBox="0 0 15 13" fill="none"><path d="M14.4256 12.2591C14.712 12.7382 14.0603 13.265 13.6403 12.8496L7.69114 6.96585C7.43108 6.70864 7.43108 6.29139 7.69114 6.03419L13.6403 0.150461C14.074 -0.278451 14.7541 0.296713 14.3951 0.786995L10.2845 6.39744L10.2698 6.42137C10.2404 6.47898 10.2453 6.5491 10.2845 6.6026L14.3951 12.213L14.4256 12.2591Z" fill="currentColor"></path><path d="M6.64026 12.8496C7.06033 13.265 7.71194 12.7382 7.42562 12.2591L7.39504 12.213L3.52328 6.92822C3.34779 6.68859 3.33693 6.36995 3.49057 6.12046L3.52302 6.07153L7.39504 0.786979C7.75415 0.296624 7.07388 -0.278405 6.64026 0.150445L0.69114 6.03418C0.431078 6.29139 0.431078 6.70863 0.69114 6.96584L6.64026 12.8496Z" fill="currentColor"></path></svg>