<svg xmlns="http://www.w3.org/2000/svg" width="70" height="70" viewBox="0 0 70 70" fill="none"><path d="M34.2526 70C34.0521 69.9454 33.8698 69.8726 33.6693 69.818C30.6615 69.0174 28.9115 66.0514 29.6406 63.0127C29.6771 62.8853 29.7136 62.758 29.7682 62.5396C24.5 59.5009 19.25 56.4804 13.9453 53.4234C13.763 53.5872 13.599 53.7328 13.4349 53.8783C11.7214 55.425 9.27865 55.7889 7.21876 54.7881C5.12241 53.7691 3.93751 51.6766 4.08334 49.2747C4.22918 47.0912 5.81511 45.1079 8.00261 44.4528C8.4948 44.3072 8.62241 44.1071 8.62241 43.6158C8.60418 37.9568 8.60418 32.3161 8.62241 26.6571C8.62241 26.2022 8.54949 25.9657 8.02084 25.8019C5.81511 25.165 4.22918 23.1817 4.08334 20.9982C3.91928 18.5781 5.12241 16.4492 7.25522 15.4484C9.31511 14.4658 11.7761 14.8297 13.4531 16.431C13.8177 16.7767 14.0547 16.7949 14.474 16.5401C19.3594 13.7016 24.263 10.8812 29.1667 8.079C29.6224 7.82426 29.7136 7.60591 29.6042 7.07822C29.0755 4.80372 30.0052 2.52922 31.9011 1.23731C33.7969 -0.0546074 36.2943 -0.0546074 38.1901 1.23731C40.0859 2.52922 40.9974 4.80372 40.487 7.07822C40.3594 7.60591 40.487 7.82426 40.9245 8.079C45.8281 10.8812 50.7318 13.7198 55.6172 16.5401C55.7995 16.6493 55.9635 16.7403 56.1823 16.8495C57.2214 15.7941 58.4245 15.0845 59.9375 14.9571C62.8542 14.7023 65.3516 16.5765 65.9531 19.4515C66.5182 22.1809 64.8776 24.9467 62.1615 25.8019C61.6146 25.9657 61.487 26.2022 61.487 26.7481C61.5052 32.3525 61.5052 37.9568 61.487 43.5612C61.487 44.1071 61.6328 44.3254 62.1797 44.4892C64.3672 45.217 65.6797 46.7637 66.0078 49.02C66.3177 51.2581 65.4792 53.0595 63.638 54.3878C63.2005 54.7153 62.7266 54.8245 62.2526 54.4606C61.651 54.0057 61.7057 53.2597 62.3984 52.7502C63.4557 52.0041 64.0208 51.0034 64.0026 49.6932C63.9844 48.092 62.8724 46.7091 61.3229 46.327C59.737 45.9449 58.0964 46.6727 57.3307 48.1102C56.5651 49.5477 56.875 51.3127 58.0964 52.3863C58.2787 52.55 58.4974 52.6774 58.6979 52.8411C59.1354 53.2233 59.2266 53.6782 58.9349 54.1877C58.6615 54.6607 58.0599 54.8245 57.5677 54.5152C57.0938 54.224 56.6563 53.8419 56.1641 53.4598C56.0365 53.5326 55.8542 53.6054 55.6719 53.7146C50.75 56.5531 45.8464 59.3917 40.9245 62.2121C40.5234 62.4486 40.3776 62.6306 40.487 63.1401C41.1979 66.2516 39.3203 69.1448 36.1849 69.8726C36.0755 69.8908 35.9844 69.9454 35.875 70C35.3464 70 34.7995 70 34.2526 70ZM30.7891 60.7746C30.8984 60.6836 30.9531 60.6472 31.0078 60.5926C33.3958 58.2818 36.5859 58.2272 38.9922 60.4835C39.3203 60.7928 39.5026 60.6836 39.7943 60.5199C44.7526 57.6631 49.7109 54.8063 54.6693 51.9495C55.0339 51.7312 55.1432 51.5492 55.0339 51.0943C54.3412 48.1648 56 45.2716 58.8802 44.4346C59.3724 44.289 59.4635 44.0889 59.4635 43.634C59.4453 37.9568 59.4453 32.2797 59.4635 26.6207C59.4635 26.1658 59.3724 25.9657 58.8802 25.8201C56.0182 24.9831 54.3412 22.1081 55.0339 19.2331C55.1615 18.7237 55.0156 18.5235 54.6146 18.287C51.4063 16.4492 48.1979 14.5932 44.9896 12.7554C43.112 11.6636 41.2162 10.5901 39.3568 9.51649C36.1849 12.1185 34.1797 12.1185 30.7708 9.55288C30.7344 9.57107 30.6797 9.57107 30.6432 9.58927C25.5573 12.5188 20.4531 15.4666 15.349 18.3779C15.0026 18.5781 14.9662 18.7782 15.0391 19.1422C15.75 22.1263 14.1094 25.0013 11.1745 25.8383C10.7188 25.9657 10.6276 26.1658 10.6276 26.5843C10.6458 32.2797 10.6458 37.975 10.6276 43.6704C10.6276 44.0889 10.7188 44.289 11.1745 44.4164C14.1276 45.2898 15.75 48.1284 15.0208 51.1125C14.9115 51.531 15.0391 51.713 15.3854 51.9132C16.7708 52.6956 18.138 53.4962 19.5234 54.2968C23.2969 56.4622 27.0339 58.6093 30.7891 60.7746ZM35.0182 9.38911C36.9688 9.40731 38.5912 7.82426 38.6094 5.87729C38.6276 3.94851 37.0599 2.34726 35.1458 2.31087C33.1771 2.27448 31.5547 3.83934 31.5182 5.78631C31.5 7.75147 33.0677 9.37092 35.0182 9.38911ZM35.0547 67.962C37.0052 67.962 38.6094 66.3608 38.6094 64.4138C38.6094 62.485 37.0234 60.902 35.1094 60.8838C33.1406 60.8656 31.5365 62.4486 31.5182 64.3956C31.5182 66.3426 33.1042 67.962 35.0547 67.962ZM64.0026 20.4887C64.0026 18.5235 62.4167 16.9586 60.4479 16.9586C58.5156 16.9586 56.9297 18.5417 56.9115 20.4705C56.8932 22.4174 58.4974 24.0187 60.4479 24.0369C62.4349 24.0369 64.0026 22.472 64.0026 20.4887ZM6.12501 20.4887C6.12501 22.472 7.69272 24.0369 9.66147 24.0187C11.6302 24.0187 13.2162 22.3993 13.1979 20.4705C13.1797 18.5417 11.612 16.9768 9.66147 16.9586C7.71095 16.9586 6.12501 18.5235 6.12501 20.4887ZM6.12501 49.766C6.12501 51.7312 7.67449 53.3142 9.66147 53.3142C11.612 53.3142 13.2344 51.713 13.2162 49.766C13.2162 47.8373 11.6302 46.2724 9.69793 46.2542C7.72918 46.236 6.14324 47.7827 6.12501 49.766Z" fill="currentColor"></path><path d="M50.112 27.6579C48.9271 28.3312 47.888 28.9134 46.8672 29.5503C46.7031 29.6595 46.5938 29.987 46.5938 30.2236C46.5755 32.1159 46.5573 33.9901 46.5938 35.8825C46.612 36.9379 46.211 37.6475 45.2813 38.1388C44.3516 38.6301 43.4766 39.176 42.5651 39.6855C41.2526 40.4315 40.1224 39.7946 40.1042 38.2844C40.086 36.7195 40.1042 35.1547 40.1042 33.4988C39.8854 33.5898 39.7396 33.6444 39.5938 33.7172C38.6823 34.2267 37.8073 34.7907 36.8776 35.2638C36.2943 35.555 36.0938 35.9007 36.0938 36.574C36.1302 41.3595 36.112 46.145 36.112 50.9306C36.112 51.2035 36.112 51.4583 36.112 51.8404C36.4219 51.6766 36.6224 51.5856 36.8047 51.4765C40.9792 49.0746 45.1354 46.6727 49.3281 44.2709C49.9115 43.9433 50.1667 43.543 50.1485 42.8698C50.112 41.6142 50.1302 40.3769 50.1302 39.1214C50.1302 38.2662 50.5313 37.8113 51.1875 37.8295C51.8255 37.8477 52.1719 38.2844 52.1719 39.1214C52.1719 40.4861 52.1719 41.8508 52.1719 43.2155C52.1719 44.3982 51.6615 45.2716 50.6589 45.8539C45.974 48.5651 41.3073 51.2581 36.6224 53.9511C35.5834 54.5516 34.5443 54.5152 33.5235 53.9329C28.875 51.2581 24.2448 48.5833 19.5964 45.9085C18.5391 45.308 18.0104 44.3982 18.0104 43.1791C18.0104 37.8295 18.0104 32.4617 18.0104 27.112C18.0104 25.8747 18.5391 24.9831 19.5964 24.3826C24.2448 21.7078 28.875 19.033 33.5235 16.3582C34.5625 15.7577 35.6016 15.7395 36.6224 16.3218C41.3073 19.0148 45.9922 21.7078 50.6589 24.419C51.6432 24.9831 52.1719 25.8383 52.1719 26.9847C52.1719 29.2956 52.1719 31.6064 52.1719 33.9355C52.1719 34.6816 51.7709 35.1365 51.1693 35.1365C50.5677 35.1365 50.1485 34.6634 50.1485 33.9355C50.1302 32.1341 50.1485 30.3509 50.1485 28.5495C50.112 28.2948 50.112 28.0582 50.112 27.6579ZM33.9427 51.804C33.9974 51.6766 34.0156 51.622 34.0156 51.5856C34.0156 46.418 34.0339 41.2321 34.0156 36.0645C34.0156 35.8825 33.8151 35.6278 33.6511 35.5186C29.349 33.0257 25.0469 30.5511 20.7266 28.0582C20.5261 27.949 20.3073 27.8399 20.0521 27.7125C20.0339 27.9127 20.0156 27.9854 20.0156 28.0764C20.0156 33.0985 20.0156 38.1024 19.9974 43.1245C19.9974 43.6886 20.2709 43.9797 20.7266 44.2345C24.9557 46.6545 29.1849 49.111 33.4141 51.5311C33.5781 51.622 33.7422 51.6948 33.9427 51.804ZM39.0469 31.6792C38.7735 31.5155 38.5912 31.4063 38.3906 31.2789C34.2709 28.8952 30.1328 26.5298 26.0313 24.1097C25.3203 23.6912 24.8099 23.6002 24.099 24.0915C23.1693 24.7466 22.1302 25.256 21.1459 25.8201C21.2188 25.9111 21.2188 25.9475 21.237 25.9475C25.6667 28.5131 30.1146 31.0788 34.5625 33.6262C34.8177 33.7718 35.3099 33.7718 35.5651 33.6262C36.7136 33.0439 37.8255 32.3707 39.0469 31.6792ZM49 25.9293C48.9271 25.8201 48.9271 25.8019 48.9089 25.7837C44.4792 23.2181 40.0313 20.6525 35.5834 18.105C35.3464 17.9594 34.9271 17.9049 34.6901 18.0322C33.6511 18.5599 32.6485 19.1786 31.6276 19.7609C31.6823 19.8336 31.6823 19.8518 31.7005 19.87C36.2214 22.4903 40.7604 25.1287 45.2995 27.7489C45.4271 27.8217 45.6641 27.8217 45.7917 27.7671C46.849 27.1848 47.9063 26.5662 49 25.9293ZM27.1068 22.3993C31.7188 25.0741 36.2396 27.6761 40.7604 30.2781C40.9063 30.3691 41.1797 30.4237 41.3073 30.3509C42.0182 29.9688 42.711 29.5503 43.4401 29.1318C43.349 29.059 43.3307 29.0044 43.2761 28.9862C38.7735 26.3842 34.2891 23.7822 29.7865 21.1801C29.6406 21.0892 29.3854 21.0892 29.2396 21.1619C28.5469 21.5259 27.8724 21.9444 27.1068 22.3993ZM44.5156 30.8786C43.7136 31.3335 43.0026 31.7338 42.3099 32.1523C42.2188 32.2069 42.1459 32.3707 42.1459 32.4799C42.1276 34.1175 42.1459 35.7733 42.1459 37.5565C42.9662 37.0834 43.6589 36.6831 44.3516 36.2646C44.4427 36.21 44.5156 36.0463 44.5156 35.9189C44.5156 34.2995 44.5156 32.6436 44.5156 30.8786Z" fill="currentColor"></path></svg>