<svg xmlns="http://www.w3.org/2000/svg" width="70" height="70" viewBox="0 0 70 70" fill="none"><path d="M25.9671 41.5339C27.6394 41.5339 29.2441 41.517 30.832 41.5339C32.7239 41.5677 34.2779 42.7502 34.7509 44.5238C34.8692 44.963 34.9029 45.436 34.9029 45.8921C34.9198 50.8414 34.9198 55.7907 34.9029 60.7401C34.9029 63.4259 33.2137 65.1151 30.511 65.1151C23.5178 65.1151 16.5245 65.1151 9.53123 65.1151C6.79474 65.1151 5.13933 63.4259 5.12244 60.6894C5.12244 55.757 5.12244 50.8245 5.12244 45.909C5.12244 43.2062 6.81163 41.5339 9.49745 41.517C10.9839 41.517 12.4873 41.517 14.0583 41.517C14.0583 41.1792 14.0583 40.892 14.0583 40.6049C14.109 38.8819 15.4096 37.4799 17.1326 37.4461C19.0414 37.3954 20.9671 37.3954 22.8759 37.4461C24.5989 37.4968 25.8995 38.8819 25.9502 40.6049C25.984 40.892 25.9671 41.1623 25.9671 41.5339ZM7.48731 52.8515C7.47042 53.1049 7.45353 53.2907 7.45353 53.4765C7.45353 55.8921 7.45353 58.3245 7.45353 60.7401C7.45353 62.2097 8.06164 62.8178 9.53123 62.8178C16.5245 62.8178 23.5178 62.8178 30.511 62.8178C31.9806 62.8178 32.5887 62.1928 32.5887 60.7401C32.5887 58.3245 32.5887 55.8921 32.5887 53.4765C32.5887 53.2738 32.555 53.0711 32.555 52.8515C29.4468 52.8515 26.4063 52.8515 23.2982 52.8515C23.2982 53.1218 23.2982 53.3414 23.2982 53.561C23.2644 54.4901 22.859 54.9124 21.9299 54.9124C20.6461 54.9124 19.3623 54.9293 18.0786 54.9124C17.234 54.9124 16.8117 54.4732 16.7779 53.6286C16.761 53.3752 16.7779 53.1387 16.7779 52.8515C13.6529 52.8515 10.5954 52.8515 7.48731 52.8515ZM16.7272 50.4867C16.7441 50.284 16.7441 50.1488 16.761 49.9968C16.7779 48.7637 17.1157 48.4427 18.3657 48.4427C19.3623 48.4427 20.3421 48.4765 21.3387 48.4259C22.9603 48.3414 23.4164 48.865 23.2982 50.2671C23.2982 50.3178 23.332 50.3853 23.3488 50.4698C26.4063 50.4698 29.4806 50.4698 32.6056 50.4698C32.6056 48.9495 32.6056 47.4461 32.6056 45.9596C32.6056 44.4394 31.9806 43.8144 30.4435 43.8144C28.2982 43.8144 26.1529 43.8144 24.0076 43.8144C19.2441 43.8144 14.4975 43.8144 9.73394 43.8144C9.3961 43.8144 9.05826 43.8312 8.73731 43.9157C8.07853 44.0846 7.55488 44.5407 7.53798 45.2164C7.47042 46.9563 7.52109 48.6961 7.52109 50.4698C10.5785 50.4867 13.6191 50.4867 16.7272 50.4867ZM23.636 41.5002C23.7711 40.2502 23.5009 39.7603 22.6563 39.7434C20.8995 39.7265 19.1259 39.7265 17.3691 39.7434C16.761 39.7434 16.4063 40.115 16.3725 40.74C16.3556 40.9765 16.3725 41.2299 16.3725 41.5002C18.8218 41.5002 21.2036 41.5002 23.636 41.5002ZM20.9333 50.7738C20.2745 50.7738 19.7002 50.7738 19.1259 50.7738C19.1259 51.4157 19.1259 52.0069 19.1259 52.5813C19.7509 52.5813 20.3421 52.5813 20.9333 52.5813C20.9333 51.9732 20.9333 51.3988 20.9333 50.7738Z" fill="currentColor"></path><path d="M44.1498 9.40553C44.1498 9.10148 44.1498 8.88188 44.1498 8.66229C44.1667 6.7535 45.4505 5.36836 47.3593 5.30079C49.1836 5.25012 51.0249 5.23322 52.8492 5.30079C54.758 5.36836 56.0249 6.77039 56.0418 8.67918C56.0418 8.88188 56.0418 9.10148 56.0418 9.40553C56.4303 9.40553 56.7681 9.40553 57.1229 9.40553C58.3729 9.40553 59.606 9.38864 60.856 9.40553C63.1871 9.43932 64.9438 11.0609 64.9607 13.392C65.0114 18.5948 65.0114 23.7975 64.9607 29.0002C64.9438 31.3144 63.204 32.9529 60.8898 32.9529C53.6769 32.9698 46.4809 32.9698 39.2681 32.9529C36.937 32.9529 35.2309 31.2468 35.214 28.9157C35.1802 23.7468 35.1802 18.5948 35.214 13.4258C35.2309 11.0609 36.9877 9.42243 39.3525 9.38864C40.9235 9.38864 42.4775 9.40553 44.1498 9.40553ZM62.6465 20.7062C59.5384 20.7062 56.481 20.7062 53.3728 20.7062C53.3728 21.0103 53.3897 21.2975 53.3728 21.5677C53.3222 22.3279 52.883 22.7671 52.1228 22.784C50.7715 22.8008 49.4201 22.8008 48.0688 22.784C47.3424 22.7671 46.9032 22.3279 46.8526 21.6015C46.8357 21.3144 46.8526 21.0272 46.8526 20.74C43.7106 20.74 40.6532 20.74 37.562 20.74C37.5451 20.9596 37.5282 21.1285 37.5282 21.2975C37.5282 23.7468 37.5282 26.1792 37.5282 28.6286C37.5282 30.0813 38.1532 30.6894 39.6228 30.6894C46.5992 30.6894 53.5755 30.6894 60.5519 30.6894C62.0553 30.6894 62.6634 30.0813 62.6634 28.5948C62.6634 26.1961 62.6634 23.7975 62.6634 21.3819C62.6803 21.1623 62.6634 20.9427 62.6465 20.7062ZM53.4066 18.3245C56.5147 18.3245 59.5722 18.3245 62.6803 18.3245C62.6803 16.7197 62.6972 15.1657 62.6803 13.6116C62.6634 12.3447 61.9877 11.7028 60.6871 11.6859C59.133 11.6859 57.5789 11.6859 56.008 11.6859C50.5519 11.6859 45.0958 11.6859 39.6397 11.6859C38.1532 11.6859 37.5451 12.3109 37.5282 13.7974C37.5282 14.5069 37.5282 15.2333 37.5282 15.9427C37.5282 16.7366 37.5282 17.5306 37.5282 18.3245C40.6701 18.3245 43.7444 18.3245 46.8019 18.3245C46.8188 18.1556 46.8188 18.0373 46.8188 17.9022C46.8357 16.5846 47.1735 16.2637 48.4742 16.2468C49.3526 16.2468 50.2478 16.2468 51.1262 16.2468C53.1701 16.2637 53.2208 16.3143 53.4066 18.3245ZM46.4471 9.35486C48.9303 9.35486 51.3289 9.35486 53.7276 9.35486C53.8289 8.10485 53.5924 7.61499 52.7816 7.5981C50.9911 7.56431 49.2005 7.56431 47.4269 7.5981C46.8188 7.5981 46.4809 7.98661 46.4471 8.61161C46.4302 8.8481 46.4471 9.06769 46.4471 9.35486ZM51.0249 20.4529C51.0249 19.811 51.0249 19.2366 51.0249 18.6285C50.3999 18.6285 49.8086 18.6285 49.2174 18.6285C49.2174 19.2704 49.2174 19.8448 49.2174 20.4529C49.8255 20.4529 50.383 20.4529 51.0249 20.4529Z" fill="currentColor"></path><path d="M49.1177 41.6017C48.6447 42.1254 48.1718 42.6659 47.6819 43.1895C47.1414 43.7808 46.4657 43.8483 45.9589 43.4091C45.4353 42.9531 45.4353 42.2943 45.9589 41.6862C47.1245 40.3517 48.3069 39.0341 49.4893 37.7166C50.0468 37.0916 50.7731 37.0916 51.3474 37.7166C52.513 39.0172 53.6785 40.3179 54.8441 41.6355C55.4184 42.2774 55.4184 42.9362 54.8779 43.4091C54.3542 43.8652 53.6785 43.7808 53.1042 43.1389C52.6481 42.6321 52.1752 42.1085 51.6177 41.4835C51.6008 41.8044 51.567 42.0071 51.567 42.1929C51.567 43.8314 51.567 45.4869 51.567 47.1254C51.5502 49.4058 50.1819 50.7909 47.9015 50.7909C45.3508 50.7909 42.8001 50.7909 40.2494 50.7909C39.4893 50.7909 38.9994 50.3179 38.9825 49.6592C38.9825 49.0173 39.4893 48.5274 40.2325 48.4936C40.4015 48.4767 40.5704 48.4936 40.7393 48.4936C43.0535 48.4936 45.3677 48.4936 47.6819 48.4936C48.9488 48.4936 49.236 48.2065 49.236 46.9396C49.236 45.1828 49.236 43.4091 49.236 41.6524C49.2022 41.6355 49.1684 41.6186 49.1177 41.6017Z" fill="currentColor"></path><path d="M18.5503 28.7637C18.5503 27.8684 18.5503 26.9731 18.5503 26.0609C18.5503 25.0981 18.5334 24.1184 18.5503 23.1555C18.5841 20.9934 19.9692 19.6082 22.1314 19.6082C24.6821 19.6082 27.2328 19.6082 29.7835 19.6082C30.5267 19.6082 30.9152 19.8954 31.0841 20.4697C31.2868 21.213 30.7294 21.8886 29.8341 21.8886C28.4659 21.9055 27.0976 21.8886 25.7294 21.8886C24.4794 21.8886 23.2463 21.8717 21.9963 21.8886C21.3206 21.8886 20.8983 22.2603 20.8814 22.919C20.8645 24.8616 20.8814 26.7873 20.8814 28.9326C21.4895 28.2569 21.9794 27.6995 22.4861 27.1589C22.9591 26.6522 23.5841 26.5508 24.074 26.8886C24.6314 27.2772 24.7666 28.0035 24.3105 28.5441C23.0774 29.9799 21.8105 31.3988 20.5267 32.7839C20.0368 33.3076 19.3442 33.2569 18.8544 32.7164C17.6213 31.365 16.405 29.9968 15.2057 28.6116C14.7327 28.0711 14.7834 27.4123 15.2733 26.9731C15.7463 26.5339 16.4219 26.5677 16.9118 27.0745C17.4355 27.615 17.9253 28.1893 18.4321 28.7468C18.449 28.7805 18.4996 28.7637 18.5503 28.7637Z" fill="currentColor"></path></svg>