<svg xmlns="http://www.w3.org/2000/svg" width="262" height="86" viewBox="0 0 262 86" fill="none"><path d="M90.0187 37.7884C86.8102 37.7884 84.268 36.894 82.3923 35.1052C80.5165 33.2916 79.5786 30.7077 79.5786 27.3537V21.0929C79.5786 17.7389 80.5165 15.1675 82.3923 13.3787C84.268 11.5651 86.8102 10.6583 90.0187 10.6583C93.2026 10.6583 95.6584 11.5403 97.3861 13.3042C99.1384 15.0433 100.015 17.4408 100.015 20.4967V20.7203H95.2018V20.3476C95.2018 18.8073 94.7699 17.5402 93.906 16.5464C93.0669 15.5526 91.7711 15.0557 90.0187 15.0557C88.2911 15.0557 86.9336 15.5899 85.9464 16.6582C84.9591 17.7265 84.4655 19.1799 84.4655 21.0184V27.4283C84.4655 29.2419 84.9591 30.6953 85.9464 31.7885C86.9336 32.8568 88.2911 33.3909 90.0187 33.3909C91.7711 33.3909 93.0669 32.8941 93.906 31.9003C94.7699 30.8817 95.2018 29.6146 95.2018 28.0991V27.4283H100.015V27.95C100.015 31.0059 99.1384 33.4158 97.3861 35.1797C95.6584 36.9189 93.2026 37.7884 90.0187 37.7884Z" fill="#282A2C"></path><path d="M101.93 37.2667L108.742 11.18H117.257L124.069 37.2667H119.034L117.627 31.5276H108.372L106.965 37.2667H101.93ZM109.52 26.9811H116.48L113.333 14.2731H112.667L109.52 26.9811Z" fill="#282A2C"></path><path d="M127.171 37.2667V11.18H138.426C140.055 11.18 141.474 11.4657 142.683 12.0371C143.893 12.6086 144.831 13.416 145.497 14.4595C146.163 15.5029 146.497 16.7327 146.497 18.1489V18.5961C146.497 20.1613 146.126 21.4283 145.386 22.3973C144.645 23.3662 143.732 24.0743 142.646 24.5215V25.1923C143.634 25.242 144.399 25.5898 144.942 26.2357C145.485 26.8569 145.756 27.6891 145.756 28.7326V37.2667H140.869V29.4407C140.869 28.8444 140.709 28.3599 140.388 27.9873C140.092 27.6146 139.586 27.4283 138.87 27.4283H132.058V37.2667H127.171ZM132.058 22.9563H137.908C139.068 22.9563 139.968 22.6457 140.61 22.0246C141.277 21.3787 141.61 20.5339 141.61 19.4905V19.1178C141.61 18.0743 141.289 17.2421 140.647 16.6209C140.005 15.975 139.092 15.652 137.908 15.652H132.058V22.9563Z" fill="#282A2C"></path><path d="M159.522 37.7884C157.745 37.7884 156.128 37.3909 154.672 36.5959C153.241 35.776 152.093 34.5959 151.229 33.0555C150.39 31.4903 149.971 29.5897 149.971 27.3537V21.0929C149.971 17.7389 150.908 15.1675 152.784 13.3787C154.66 11.5651 157.202 10.6583 160.411 10.6583C163.595 10.6583 166.05 11.5154 167.778 13.2297C169.53 14.9191 170.407 17.2172 170.407 20.124V20.2731H165.594V19.9749C165.594 19.0557 165.396 18.2234 165.001 17.4781C164.631 16.7327 164.063 16.1489 163.298 15.7265C162.533 15.2793 161.571 15.0557 160.411 15.0557C158.683 15.0557 157.326 15.5899 156.338 16.6582C155.351 17.7265 154.857 19.1799 154.857 21.0184V27.4283C154.857 29.2419 155.351 30.7077 156.338 31.8257C157.326 32.9189 158.708 33.4655 160.485 33.4655C162.262 33.4655 163.558 32.9934 164.372 32.0493C165.186 31.1053 165.594 29.9127 165.594 28.4717V28.0991H159.448V23.9252H170.407V37.2667H165.89V34.7698H165.223C165.051 35.1922 164.767 35.6394 164.372 36.1114C164.002 36.5835 163.434 36.981 162.669 37.3039C161.904 37.6269 160.855 37.7884 159.522 37.7884Z" fill="#282A2C"></path><path d="M185.145 37.7884C181.887 37.7884 179.296 36.894 177.371 35.1052C175.446 33.2916 174.483 30.7077 174.483 27.3537V21.0929C174.483 17.7389 175.446 15.1675 177.371 13.3787C179.296 11.5651 181.887 10.6583 185.145 10.6583C188.403 10.6583 190.995 11.5651 192.92 13.3787C194.845 15.1675 195.807 17.7389 195.807 21.0929V27.3537C195.807 30.7077 194.845 33.2916 192.92 35.1052C190.995 36.894 188.403 37.7884 185.145 37.7884ZM185.145 33.3909C186.972 33.3909 188.391 32.8568 189.403 31.7885C190.415 30.7202 190.921 29.2916 190.921 27.5028V20.9439C190.921 19.1551 190.415 17.7265 189.403 16.6582C188.391 15.5899 186.972 15.0557 185.145 15.0557C183.344 15.0557 181.924 15.5899 180.888 16.6582C179.876 17.7265 179.37 19.1551 179.37 20.9439V27.5028C179.37 29.2916 179.876 30.7202 180.888 31.7885C181.924 32.8568 183.344 33.3909 185.145 33.3909Z" fill="#282A2C"></path><path d="M86.1677 74.5333V52.9187H78.6152V48.4467H98.607V52.9187H91.0545V74.5333H86.1677Z" fill="#282A2C"></path><path d="M101.935 74.5333V48.4467H113.189C114.818 48.4467 116.238 48.7324 117.447 49.3038C118.656 49.8752 119.594 50.6827 120.261 51.7261C120.927 52.7696 121.26 53.9994 121.26 55.4155V55.8627C121.26 57.4279 120.89 58.695 120.15 59.6639C119.409 60.6329 118.496 61.3409 117.41 61.7881V62.4589C118.397 62.5086 119.162 62.8564 119.705 63.5024C120.248 64.1235 120.52 64.9558 120.52 65.9993V74.5333H115.633V66.7073C115.633 66.1111 115.472 65.6266 115.152 65.2539C114.855 64.8813 114.35 64.6949 113.634 64.6949H106.822V74.5333H101.935ZM106.822 60.2229H112.671C113.831 60.2229 114.732 59.9124 115.374 59.2913C116.04 58.6453 116.373 57.8006 116.373 56.7571V56.3845C116.373 55.341 116.053 54.5087 115.411 53.8876C114.769 53.2416 113.856 52.9187 112.671 52.9187H106.822V60.2229Z" fill="#282A2C"></path><path d="M135.322 75.0551C133.2 75.0551 131.373 74.67 129.843 73.8998C128.338 73.1048 127.178 71.9868 126.363 70.5458C125.573 69.08 125.178 67.3533 125.178 65.3657V48.4467H130.065V65.5148C130.065 67.1048 130.51 68.3595 131.398 69.2787C132.311 70.198 133.619 70.6576 135.322 70.6576C137.025 70.6576 138.321 70.198 139.21 69.2787C140.123 68.3595 140.58 67.1048 140.58 65.5148V48.4467H145.466V65.3657C145.466 67.3533 145.059 69.08 144.245 70.5458C143.455 71.9868 142.295 73.1048 140.765 73.8998C139.259 74.67 137.445 75.0551 135.322 75.0551Z" fill="#282A2C"></path><path d="M160.048 75.0551C156.84 75.0551 154.298 74.1607 152.422 72.3719C150.546 70.5582 149.608 67.9744 149.608 64.6204V58.3596C149.608 55.0056 150.546 52.4342 152.422 50.6454C154.298 48.8317 156.84 47.9249 160.048 47.9249C163.232 47.9249 165.688 48.8069 167.416 50.5709C169.168 52.31 170.044 54.7075 170.044 57.7633V57.9869H165.231V57.6143C165.231 56.0739 164.799 54.8068 163.936 53.8131C163.096 52.8193 161.801 52.3224 160.048 52.3224C158.321 52.3224 156.963 52.8565 155.976 53.9249C154.989 54.9932 154.495 56.4466 154.495 58.2851V64.6949C154.495 66.5086 154.989 67.962 155.976 69.0551C156.963 70.1234 158.321 70.6576 160.048 70.6576C161.801 70.6576 163.096 70.1607 163.936 69.1669C164.799 68.1483 165.231 66.8812 165.231 65.3657V64.6949H170.044V65.2167C170.044 68.2725 169.168 70.6824 167.416 72.4464C165.688 74.1855 163.232 75.0551 160.048 75.0551Z" fill="#282A2C"></path><path d="M174.026 74.5333V48.4467H178.913V58.8068H179.579L187.983 48.4467H194.24L183.43 61.3037L194.61 74.5333H188.168L179.579 63.9496H178.913V74.5333H174.026Z" fill="#282A2C"></path><path d="M197.201 74.5333V48.4467H202.088V74.5333H197.201Z" fill="#282A2C"></path><path d="M206.962 74.5333V48.4467H216.255L221.401 71.1793H222.067V48.4467H226.88V74.5333H217.588L212.442 51.8007H211.775V74.5333H206.962Z" fill="#282A2C"></path><path d="M240.723 75.0551C238.946 75.0551 237.33 74.6575 235.873 73.8625C234.442 73.0427 233.294 71.8626 232.43 70.3222C231.591 68.757 231.172 66.8564 231.172 64.6204V58.3596C231.172 55.0056 232.11 52.4342 233.985 50.6454C235.861 48.8317 238.403 47.9249 241.612 47.9249C244.796 47.9249 247.251 48.7821 248.979 50.4963C250.732 52.1857 251.608 54.4839 251.608 57.3907V57.5397H246.795V57.2416C246.795 56.3223 246.597 55.4901 246.203 54.7447C245.832 53.9994 245.265 53.4155 244.5 52.9932C243.734 52.546 242.772 52.3224 241.612 52.3224C239.884 52.3224 238.527 52.8565 237.539 53.9249C236.552 54.9932 236.059 56.4466 236.059 58.2851V64.6949C236.059 66.5086 236.552 67.9744 237.539 69.0924C238.527 70.1855 239.909 70.7321 241.686 70.7321C243.463 70.7321 244.759 70.2601 245.573 69.316C246.388 68.3719 246.795 67.1794 246.795 65.7384V65.3657H240.649V61.1919H251.608V74.5333H247.091V72.0365H246.425C246.252 72.4588 245.968 72.906 245.573 73.3781C245.203 73.8501 244.635 74.2476 243.87 74.5706C243.105 74.8936 242.056 75.0551 240.723 75.0551Z" fill="#282A2C"></path><path d="M30.6065 15.2897L42.2954 21.8916L48.2222 18.554L30.6065 8.60001L1.18232 25.2291L7.07914 28.5666L30.6065 15.2897Z" fill="#FF5A24"></path><path d="M54.1192 21.8916L30.6068 35.1685L18.9179 28.5666L13.0061 31.9042L30.6068 41.8435L60.046 25.2291L54.1192 21.8916Z" fill="#FF5A24"></path><path d="M5.91179 44.2297L0 40.8922L0 60.7709L29.4242 77.4V70.725L5.91179 57.4334V44.2297Z" fill="#FF5A24"></path><path d="M0 34.2169L23.5124 47.4938V60.6975L29.4242 64.0496V44.1562L0 27.5418L0 34.2169Z" fill="#FF5A24"></path><path d="M49.4047 40.892V34.217L31.7891 44.1564V77.3999L37.7009 74.0624V47.4939L49.4047 40.892Z" fill="#FF5A24"></path><path d="M55.3015 30.8793V57.4332L43.6126 64.0496V70.7247L61.2283 60.7707V27.5418L55.3015 30.8793Z" fill="#FF5A24"></path></svg>