<svg xmlns="http://www.w3.org/2000/svg" width="18" height="19" viewBox="0 0 18 19" fill="none"><g clip-path="url(#clip0_63366_1234)"><path d="M15.8026 2.65082H2.20112C0.986965 2.65082 0 3.63778 0 4.85194V14.148C0 15.3622 0.986965 16.3491 2.20112 16.3491H15.7989C17.013 16.3491 18 15.3622 18 14.148V4.85566C18.0037 3.64151 17.0168 2.65082 15.8026 2.65082ZM16.9981 14.148C16.9981 14.8072 16.4618 15.3436 15.8026 15.3436H2.20112C1.5419 15.3436 1.00559 14.8072 1.00559 14.148V4.85566C1.00559 4.19644 1.5419 3.66013 2.20112 3.66013H15.7989C16.4581 3.66013 16.9944 4.19644 16.9944 4.85566V14.148H16.9981Z" fill="currentColor"></path><path d="M11.3517 9.3845L15.7539 5.43664C15.9588 5.25042 15.9774 4.93385 15.7912 4.72528C15.6049 4.52044 15.2884 4.50182 15.0798 4.68804L9.00904 10.1368L7.82469 9.0791C7.82096 9.07538 7.81724 9.07165 7.81724 9.06793C7.79117 9.04186 7.7651 9.01951 7.7353 8.99716L2.91593 4.68431C2.70737 4.49809 2.39079 4.51671 2.20457 4.72528C2.01836 4.93385 2.03698 5.25042 2.24554 5.43664L6.69992 9.41802L2.26417 13.5707C2.06305 13.7607 2.05187 14.0772 2.24182 14.2821C2.34238 14.3864 2.47646 14.4422 2.61053 14.4422C2.73344 14.4422 2.85634 14.3975 2.95318 14.3082L7.45597 10.0959L8.67757 11.1871C8.77441 11.2728 8.89359 11.3137 9.01277 11.3137C9.13195 11.3137 9.25485 11.269 9.34796 11.1834L10.6031 10.0586L15.0798 14.3119C15.1766 14.405 15.3033 14.4497 15.4262 14.4497C15.5603 14.4497 15.6906 14.3975 15.7912 14.2933C15.9811 14.0921 15.9737 13.7718 15.7725 13.5819L11.3517 9.3845Z" fill="currentColor"></path></g><defs><clipPath id="clip0_63366_1234"><rect width="18" height="18" fill="currentColor" transform="translate(0 0.5)"></rect></clipPath></defs></svg>