<svg xmlns="http://www.w3.org/2000/svg" width="512" height="512" viewBox="0 0 512 512" fill="none"><path d="M432.874 138.706C429.748 135.345 426.521 131.985 423.294 128.675C399.345 104.388 371.866 82.0859 341.563 62.4318C310.908 42.7268 279.092 26.8915 246.975 15.3842C242.79 13.8567 238.605 12.4819 234.37 11.1072C195.042 -1.41849 153.95 3.97874 118.555 26.3314C82.958 48.9387 57.8487 85.6501 47.8655 129.744C46.7563 134.734 45.6471 139.775 44.6891 144.816C37.5798 180.815 34 218.239 34 256.019C34 293.8 37.5798 331.377 44.6891 367.376C45.6975 372.416 46.7563 377.406 47.8655 382.345C57.8487 426.44 82.958 463.1 118.555 485.656C141.445 500.117 166.756 507.5 192.42 507.5C206.387 507.5 220.504 505.311 234.37 500.881C238.555 499.557 242.79 498.131 247.025 496.604C279.143 485.147 310.958 469.312 341.613 449.607C371.462 430.411 398.941 408.109 423.294 383.465C426.521 380.258 429.647 376.948 432.723 373.689C461.866 342.528 477.95 300.878 478 256.325C478 211.772 462.067 170.02 432.975 138.757L432.874 138.706ZM401.21 333.516C398.387 336.571 395.462 339.575 392.437 342.63C369.798 365.593 344.235 386.317 316.454 404.189C287.765 422.621 258.118 437.438 228.269 448.08C224.387 449.454 220.555 450.778 216.672 452C190.756 460.249 163.681 456.735 140.437 442.02C116.941 427.152 100.353 402.865 93.7479 373.689C92.7395 369.107 91.7311 364.524 90.8235 359.84C84.2185 326.387 80.8908 291.458 80.8908 256.07C80.8908 239.369 82.2521 161.771 128.387 148.482C132.37 147.871 136.353 147.515 140.387 147.515C149.613 147.515 158.891 148.94 168.067 151.894C171.899 153.116 175.782 154.439 179.613 155.814C209.462 166.507 239.109 181.222 267.697 199.654C290.639 214.522 311.714 231.07 330.723 248.738C333.496 252.964 332.992 257.547 331.126 260.704C329.613 263.199 326.588 265.846 320.185 272.466C313.277 278.932 306.168 285.246 298.756 291.305C277.227 275.215 201.445 224.094 160.756 210.55C145.681 205.56 139.176 217.373 136.605 226.335C130.655 247.16 133.227 323.077 147.647 371.245C147.697 371.449 147.798 371.602 147.849 371.805C152.437 386.724 160.303 397.57 167.916 402.661C167.916 402.661 183.244 413.048 203.412 408.008C230.185 397.213 256.605 383.669 282.218 367.172C310.101 349.249 335.866 328.475 359.008 305.715C359.412 305.307 359.815 304.849 360.269 304.442C363.143 301.539 384.622 283.413 383.613 256.325C383.059 240.948 376.101 226.793 364.908 213.096C360.37 207.546 354.924 202.353 348.874 197.312C331.731 181.935 313.429 167.525 293.059 154.338C262.403 134.633 230.588 118.797 198.471 107.29C194.286 105.762 190.101 104.388 185.866 103.013C160.555 94.917 134.538 94.5606 109.731 101.129C117.345 89.0616 129.143 77.4015 140.588 70.1712C155.613 60.6497 172.252 55.8126 189.143 55.8126C198.37 55.8126 207.647 57.2382 216.824 60.1914C220.655 61.4135 224.538 62.7373 228.37 64.1121C258.218 74.8047 287.866 89.5198 316.454 107.952C344.74 126.282 370.353 147.005 392.588 169.613C395.613 172.668 398.588 175.774 401.462 178.88C420.672 199.501 431.21 227.047 431.21 256.376C431.21 285.704 420.571 313.149 401.361 333.668L401.21 333.516ZM249.092 326.387C240.319 331.784 231.496 336.825 222.571 341.561C221.059 342.273 219.597 342.986 218.235 343.648C218.235 343.648 194.387 355.104 189.445 339.422C180.269 310.501 184.908 284.177 184.908 284.177C184.908 284.177 217.832 301.743 249.092 326.387Z" fill="#6A37FF"></path></svg>