<svg xmlns="http://www.w3.org/2000/svg" width="379" height="99" viewBox="0 0 379 99" fill="none"><g clip-path="url(#clip0_527_266)"><path d="M79.0662 26.4088C78.4465 25.7473 77.8069 25.0858 77.1672 24.4344C72.4199 19.6538 66.9729 15.264 60.9662 11.3954C54.8896 7.5168 48.5831 4.39988 42.2166 2.13484C41.3871 1.83417 40.5575 1.56357 39.718 1.29297C31.9223 -1.16249 23.7668 -0.100124 16.7607 4.29965C9.70462 8.7295 4.72738 15.9556 2.74848 24.6449C2.5286 25.627 2.30872 26.6193 2.11883 27.6115C0.709607 34.6972 0 42.0636 0 49.5001C0 56.9366 0.709607 64.3331 2.11883 71.4188C2.31872 72.411 2.5286 73.3932 2.74848 74.3654C4.72738 83.0446 9.70462 90.2607 16.7607 94.7005C21.2982 97.5469 26.3154 99.0001 31.4026 99.0001C34.1711 99.0001 36.9695 98.5691 39.718 97.6972C40.5475 97.4366 41.3871 97.156 42.2266 96.8553C48.5931 94.6003 54.8996 91.4834 60.9762 87.6048C66.8929 83.8264 72.3399 79.4366 77.1672 74.5858C77.8069 73.9544 78.4265 73.303 79.0362 72.6616C84.813 66.5279 88.0012 58.3297 88.0112 49.5602C88.0112 40.7907 84.853 32.5725 79.0862 26.4188L79.0662 26.4088ZM72.7897 64.754C72.23 65.3553 71.6503 65.9467 71.0506 66.548C66.5631 71.068 61.4959 75.1471 55.989 78.6649C50.3021 82.293 44.4254 85.2095 38.5087 87.3041C37.7391 87.5747 36.9795 87.8353 36.2099 88.0758C31.0728 89.6994 25.7058 89.0079 21.0983 86.1115C16.4409 83.185 13.1527 78.4043 11.8434 72.6616C11.6435 71.7596 11.4437 70.8576 11.2638 69.9355C9.95448 63.3509 9.29485 56.4756 9.29485 49.5101C9.29485 46.2228 9.5647 30.9489 18.7096 28.3331C19.4992 28.2128 20.2888 28.1426 21.0883 28.1426C22.9173 28.1426 24.7563 28.4233 26.5753 29.0046C27.3349 29.2451 28.1044 29.5057 28.864 29.7763C34.7807 31.8809 40.6575 34.7774 46.3243 38.4054C50.8718 41.3319 55.0495 44.5892 58.8174 48.0669C59.3671 48.8988 59.2672 49.8008 58.8974 50.4222C58.5975 50.9132 57.9979 51.4344 56.7286 52.7373C55.3593 54.0101 53.9501 55.2529 52.4809 56.4455C48.2133 53.2785 33.1916 43.2161 25.1261 40.5502C22.1377 39.568 20.8484 41.8932 20.3387 43.6571C19.1594 47.7562 19.6691 62.6994 22.5275 72.1805C22.5375 72.2206 22.5575 72.2507 22.5675 72.2907C23.477 75.2273 25.0361 77.362 26.5453 78.3642C26.5453 78.3642 29.5836 80.4088 33.5814 79.4166C38.8885 77.2919 44.1255 74.6259 49.2027 71.3787C54.7297 67.8509 59.8368 63.7618 64.4243 59.2818C64.5043 59.2017 64.5842 59.1115 64.6742 59.0313C65.2438 58.46 69.5015 54.8921 69.3016 49.5602C69.1917 46.5335 67.8124 43.7473 65.5937 41.0513C64.6942 39.9589 63.6148 38.9366 62.4154 37.9444C59.0173 34.9177 55.3893 32.0814 51.3515 29.4856C45.2749 25.607 38.9684 22.4901 32.6019 20.225C31.7724 19.9244 30.9429 19.6538 30.1033 19.3832C25.0861 17.7896 19.929 17.7195 15.0117 19.0123C16.5208 16.6371 18.8595 14.342 21.1283 12.9188C24.1066 11.0446 27.4048 10.0925 30.753 10.0925C32.5819 10.0925 34.4209 10.3731 36.2399 10.9544C36.9995 11.195 37.7691 11.4556 38.5287 11.7262C44.4454 13.8308 50.3221 16.7273 55.989 20.3553C61.5959 23.9633 66.6731 28.0424 71.0806 32.4923C71.6803 33.0936 72.27 33.705 72.8396 34.3164C76.6475 38.3754 78.7364 43.7974 78.7364 49.5703C78.7364 55.3431 76.6275 60.7451 72.8197 64.7841L72.7897 64.754ZM42.6364 63.3509C40.8973 64.4132 39.1483 65.4054 37.3793 66.3375C37.0795 66.4778 36.7896 66.6181 36.5198 66.7484C36.5198 66.7484 31.7924 69.0034 30.8129 65.9166C28.9939 60.2239 29.9134 55.0424 29.9134 55.0424C29.9134 55.0424 36.4398 58.5001 42.6364 63.3509Z" fill="white"></path><path d="M149.147 7.30518C146.428 7.30518 144.3 9.32012 144.3 12.0462C144.3 14.7121 146.428 16.7265 149.147 16.7265C151.865 16.7265 153.994 14.7722 153.994 12.0462C153.994 9.32012 151.865 7.30518 149.147 7.30518ZM308.697 7.30518C305.979 7.30518 303.85 9.32012 303.85 12.0462C303.85 14.7121 305.979 16.7265 308.697 16.7265C311.416 16.7265 313.546 14.7722 313.546 12.0462C313.546 9.32012 311.416 7.30518 308.697 7.30518ZM130.817 8.95924V23.7734C128.868 21.2879 125.86 19.6236 121.662 19.6236C113.567 19.6236 107.6 25.4868 107.6 35.1483C107.6 44.8098 113.565 50.7924 121.721 50.7924C126.088 50.7924 129.048 48.8393 131.057 46.2335L131.887 50.4421H139.152V8.96903H130.827L130.817 8.95924ZM285.181 11.4648V19.9935H280.164V27.0404H285.181V41.7235C285.181 47.5264 288.079 50.4323 293.866 50.4323H300.663V43.3854H296.524C294.335 43.3854 293.506 42.5036 293.506 40.3689V27.0404H300.483V19.9935H293.506V11.4648H285.181ZM171.344 19.5727C163.548 19.5125 158.292 23.2425 158.292 29.5264C158.292 35.8104 163.789 37.4034 170.875 38.2352C175.782 38.8867 177.85 39.0676 177.85 41.5532C177.85 43.6879 175.722 44.8104 172.234 44.8104C168.156 44.8104 165.858 42.9761 165.558 40.3102L165.568 40.3003H157.652C158.002 46.8148 164.028 50.7826 172.183 50.7826C180.339 50.7826 186.006 46.9349 186.006 40.8915C186.006 34.0262 180.219 32.4225 173.243 31.7109C168.866 31.1798 166.267 30.9389 166.267 28.6338C166.267 26.6794 168.276 25.496 171.644 25.496C175.013 25.496 177.311 26.9796 177.551 29.405H185.527C185.108 23.1912 179.499 19.5727 171.344 19.5727ZM363.637 19.6236C354.243 19.6236 348.037 25.7866 348.037 35.2677L348.027 35.2579C348.027 44.6788 354.113 50.7826 364.217 50.7826C372.312 50.7826 377.57 46.0415 378.52 40.1183H370.303C369.594 42.9646 367.236 44.4482 363.868 44.4482C359.68 44.4482 356.901 41.8325 356.721 37.5129V37.1018H378.76C378.94 36.1497 379 35.1476 379 34.2557C378.88 25.3058 373.032 19.6236 363.637 19.6236ZM264.403 19.6334C260.086 19.6334 257.018 21.5885 255.069 24.1943L254.239 19.9838H246.972V62.2789H255.297V46.5839C257.246 49.0794 260.254 50.7924 264.452 50.7924C272.608 50.7924 278.515 44.7488 278.515 35.2677L278.525 35.2775C278.525 25.6762 272.619 19.5733 264.403 19.6334ZM212.052 19.974V36.8611C212.052 47.6451 217.839 50.7827 224.105 50.7827C228.423 50.7827 231.081 49.1195 233.03 46.7542L233.799 50.4323H241.186V19.9837H232.851V35.1972C232.851 40.8197 230.431 43.8473 226.294 43.8473C222.156 43.8473 220.387 41.1818 220.387 35.7297V19.974L212.052 19.974ZM144.948 19.9838V50.4323H153.334V19.9837L144.948 19.9838ZM208.864 19.9838V19.9936H208.874L208.864 19.9838ZM208.864 19.9936H207.454C202.727 19.9936 200.368 21.8285 198.709 24.5545L197.94 19.9936H190.374V50.4422H198.7V35.5085C198.7 30.8882 200.588 27.5709 205.555 27.5709H208.864V19.9936ZM304.5 19.9838V50.4323H312.886V19.9837L304.5 19.9838ZM315.664 19.9838L326.597 50.4323H336.932L347.867 19.9838H339.122L331.915 41.9036L324.589 19.9838H315.664ZM363.688 25.8582C367.476 25.8582 370.015 27.9319 370.604 31.6601H370.594H356.891C357.361 28.0521 359.9 25.8582 363.688 25.8582ZM123.561 26.4396C128.109 26.4396 130.946 30.0562 130.946 35.2678C130.946 40.4192 128.109 43.9785 123.561 43.9785C119.014 43.9785 116.114 40.4206 116.114 35.209C116.114 29.9975 119.014 26.4396 123.561 26.4396ZM262.553 26.4396C267.1 26.4396 270.06 29.9969 270.06 35.1484C270.06 40.3599 267.1 43.9785 262.553 43.9785C258.005 43.9785 255.168 40.2998 255.168 35.1484C255.168 29.9969 258.005 26.4396 262.553 26.4396ZM149.266 59.6715C148.277 59.6715 147.507 60.3936 147.507 61.4059C147.507 62.4181 148.277 63.1402 149.266 63.1402C150.255 63.1402 151.025 62.4181 151.025 61.4059C151.025 60.3936 150.255 59.6715 149.266 59.6715ZM179.439 59.6715C178.449 59.6715 177.68 60.3936 177.68 61.4059C177.68 62.4181 178.449 63.1402 179.439 63.1402C180.428 63.1402 181.199 62.4181 181.199 61.4059C181.199 60.3936 180.428 59.6715 179.439 59.6715ZM108.718 60.0435V78.7452H111.597V60.0435H108.718ZM169.216 61.2454V65.0644H166.846V67.5993H169.216L169.235 67.6111V75.0358C169.235 77.5113 170.355 78.7452 172.964 78.7452H175.622V76.2083H173.592C172.493 76.2083 172.124 75.8087 172.124 74.7363V67.5993H175.453V65.0644H172.124V61.2454L169.216 61.2454ZM121.403 64.9039C117.245 64.9039 114.445 67.7306 114.445 71.8999C114.445 76.0892 117.245 78.8959 121.403 78.8959C125.56 78.8959 128.358 76.0692 128.358 71.8999C128.358 67.7306 125.56 64.9039 121.403 64.9039ZM159.301 64.9039C156.023 64.8838 153.703 66.5578 153.703 69.1536C153.703 71.9798 156.152 72.6507 159.27 73.0215C161.379 73.2921 162.63 73.3922 162.63 74.8655C162.63 75.9679 161.459 76.6605 159.67 76.6605C157.592 76.6605 156.372 75.6385 156.262 74.2254H153.443C153.523 77.1819 156.032 78.8959 159.68 78.8959C162.978 78.8959 165.458 77.2425 165.458 74.6267C165.458 71.5799 162.929 70.9377 159.811 70.5669C157.842 70.3564 156.531 70.1956 156.531 68.9128C156.531 67.8103 157.651 67.1197 159.36 67.1197C161.069 67.1197 162.239 68.0006 162.399 69.2534H165.218C165.028 66.4572 162.66 64.9039 159.301 64.9039ZM190.554 64.9039C186.426 64.9039 183.708 67.7099 183.708 71.9293C183.712 76.2035 186.349 78.8959 190.474 78.8959C193.962 78.8959 196.28 76.9405 196.81 73.8437H193.773C193.423 75.4272 192.252 76.4393 190.493 76.4393C188.174 76.4393 186.655 74.6252 186.655 71.9293C186.655 69.2333 188.174 67.3605 190.493 67.3605C192.282 67.3605 193.432 68.3526 193.802 69.9561H196.81C196.25 66.8592 194.072 64.9039 190.554 64.9039ZM204.835 64.9039C201.557 64.8838 199.238 66.5578 199.238 69.1536C199.238 71.9798 201.687 72.6507 204.806 73.0215C206.914 73.2921 208.163 73.3922 208.163 74.8655C208.163 75.9679 206.995 76.6605 205.206 76.6605C203.127 76.6605 201.907 75.6385 201.797 74.2254H198.979C199.059 77.1819 201.567 78.8959 205.215 78.8959C208.514 78.8959 210.992 77.2425 210.992 74.6267C210.992 71.5799 208.465 70.9377 205.346 70.5669C203.377 70.3564 202.067 70.1956 202.067 68.9128C202.067 67.8103 203.186 67.1197 204.895 67.1197C206.604 67.1197 207.775 68.0006 207.935 69.2534H210.751C210.562 66.4572 208.193 64.9039 204.835 64.9039ZM137.144 64.9137C133.446 64.9137 130.696 67.5092 130.696 71.8588C130.696 76.2085 133.446 78.8059 137.144 78.8059C139.273 78.8059 140.681 77.9237 141.591 76.5607V78.0836C141.591 80.6994 140.181 81.9026 137.673 81.9026C135.654 81.9026 134.325 81.0203 133.976 79.4969H131.046C131.305 82.5637 133.834 84.2477 137.462 84.2477C142.359 84.2477 144.439 81.8917 144.439 78.1834V65.0644H141.93L141.94 65.0742L141.62 67.2098C140.741 65.8468 139.273 64.9137 137.144 64.9137ZM147.798 65.0644V78.7452H150.675V65.0644H147.798ZM177.981 65.0644V78.7452H180.86V65.0644H177.981ZM137.622 67.3292C140.018 67.3292 141.587 69.1991 141.591 71.8901V71.8941V71.9C141.587 74.5099 140.017 76.3493 137.622 76.3493C135.223 76.3493 133.655 74.4751 133.655 71.8393C133.655 69.2034 135.223 67.3292 137.622 67.3292ZM121.403 67.3605C123.821 67.3605 125.42 69.2541 125.42 71.8999C125.42 74.5458 123.831 76.4393 121.403 76.4393C118.974 76.4393 117.405 74.5458 117.405 71.8999C117.405 69.2541 118.984 67.3605 121.403 67.3605Z" fill="white"></path></g><defs><clipPath id="clip0_527_266"><rect width="379" height="99" fill="white"></rect></clipPath></defs></svg>