<svg xmlns="http://www.w3.org/2000/svg" width="18" height="19" viewBox="0 0 18 19" fill="none"><g clip-path="url(#clip0_63366_1229)"><path d="M14.2263 11.6503C13.8577 11.2666 13.4133 11.0615 12.9422 11.0615C12.4749 11.0615 12.0266 11.2628 11.6429 11.6465L10.4424 12.8432C10.3437 12.79 10.2449 12.7407 10.1499 12.6913C10.0131 12.6229 9.88397 12.5583 9.7738 12.4899C8.64929 11.7757 7.62735 10.8449 6.6472 9.64065C6.17232 9.04041 5.85321 8.53514 5.62147 8.02227C5.93299 7.73734 6.22171 7.44102 6.50284 7.15609C6.60921 7.04972 6.71559 6.93955 6.82196 6.83318C7.61975 6.03538 7.61975 5.00205 6.82196 4.20425L5.78482 3.16712C5.66705 3.04935 5.54549 2.92778 5.43151 2.80621C5.20357 2.57067 4.96424 2.32754 4.7173 2.09959C4.34879 1.73489 3.90811 1.54114 3.44463 1.54114C2.98115 1.54114 2.53286 1.73489 2.15296 2.09959C2.14916 2.10339 2.14916 2.10339 2.14536 2.10719L0.853692 3.41026C0.367417 3.89653 0.0900887 4.48918 0.0293043 5.1768C-0.0618723 6.28612 0.264844 7.31945 0.515579 7.99568C1.13102 9.65585 2.05038 11.1945 3.42183 12.8432C5.0858 14.8301 7.08789 16.3991 9.3749 17.5046C10.2487 17.9187 11.415 18.4088 12.718 18.4924C12.7978 18.4962 12.8814 18.5 12.9574 18.5C13.835 18.5 14.572 18.1847 15.1494 17.5578C15.1532 17.5502 15.1608 17.5464 15.1646 17.5388C15.3622 17.2995 15.5901 17.0829 15.8294 16.8512C15.9928 16.6954 16.16 16.5321 16.3233 16.3611C16.6994 15.9698 16.897 15.5139 16.897 15.0467C16.897 14.5756 16.6956 14.1235 16.3119 13.7436L14.2263 11.6503ZM15.5863 15.6507C15.5825 15.6507 15.5825 15.6545 15.5863 15.6507C15.4381 15.8103 15.2862 15.9546 15.1228 16.1142C14.8759 16.3497 14.6252 16.5967 14.3896 16.874C14.0059 17.2843 13.5538 17.478 12.9612 17.478C12.9042 17.478 12.8434 17.478 12.7864 17.4742C11.6581 17.4021 10.6096 16.9614 9.82319 16.5853C7.67294 15.5443 5.78482 14.0665 4.21583 12.1936C2.92036 10.6322 2.05418 9.18857 1.48053 7.63857C1.12722 6.69261 0.998055 5.9556 1.05504 5.26038C1.09303 4.8159 1.26399 4.44739 1.57931 4.13207L2.87477 2.8366C3.06092 2.66185 3.25847 2.56687 3.45222 2.56687C3.69156 2.56687 3.88531 2.71124 4.00688 2.83281C4.01068 2.8366 4.01448 2.8404 4.01828 2.8442C4.25002 3.06075 4.47036 3.28489 4.7021 3.52423C4.81987 3.6458 4.94144 3.76737 5.06301 3.89273L6.10014 4.92987C6.50284 5.33256 6.50284 5.70487 6.10014 6.10756C5.98997 6.21774 5.8836 6.32791 5.77343 6.43428C5.45431 6.76099 5.15039 7.06492 4.81987 7.36124C4.81227 7.36884 4.80468 7.37264 4.80088 7.38024C4.47416 7.70695 4.53495 8.02607 4.60333 8.24261C4.60713 8.25401 4.61093 8.26541 4.61473 8.27681C4.88446 8.93024 5.26436 9.54568 5.84181 10.2789L5.84561 10.2827C6.89414 11.5744 7.99966 12.5811 9.21914 13.3523C9.3749 13.4511 9.53446 13.5309 9.68642 13.6068C9.82319 13.6752 9.95235 13.7398 10.0625 13.8082C10.0777 13.8158 10.0929 13.8272 10.1081 13.8348C10.2373 13.8994 10.3588 13.9298 10.4842 13.9298C10.7995 13.9298 10.9971 13.7322 11.0617 13.6676L12.3609 12.3684C12.4901 12.2392 12.6952 12.0834 12.9346 12.0834C13.1701 12.0834 13.3639 12.2316 13.4816 12.3608C13.4854 12.3646 13.4854 12.3646 13.4892 12.3684L15.5825 14.4616C15.9738 14.8491 15.9738 15.248 15.5863 15.6507Z" fill="currentColor"></path><path d="M9.72879 4.78169C10.7241 4.94885 11.6283 5.41992 12.3501 6.14174C13.0719 6.86355 13.5392 7.76772 13.7101 8.76306C13.7519 9.0138 13.9685 9.18855 14.2154 9.18855C14.2458 9.18855 14.2724 9.18475 14.3028 9.18096C14.5839 9.13537 14.7701 8.86944 14.7245 8.58831C14.5193 7.38402 13.9495 6.2861 13.0795 5.41612C12.2095 4.54615 11.1116 3.9763 9.90735 3.77115C9.62622 3.72556 9.36409 3.91171 9.3147 4.18904C9.26532 4.46637 9.44767 4.7361 9.72879 4.78169Z" fill="currentColor"></path><path d="M17.9792 8.44018C17.6411 6.45709 16.7066 4.65255 15.2705 3.21652C13.8345 1.78049 12.03 0.845932 10.0469 0.507819C9.76955 0.458432 9.50742 0.648383 9.45803 0.925712C9.41245 1.20684 9.5986 1.46897 9.87973 1.51836C11.6501 1.81848 13.2647 2.65807 14.5487 3.93834C15.8328 5.22241 16.6686 6.83699 16.9687 8.60734C17.0105 8.85807 17.227 9.03283 17.474 9.03283C17.5044 9.03283 17.531 9.02903 17.5614 9.02523C17.8387 8.98344 18.0286 8.71751 17.9792 8.44018Z" fill="currentColor"></path></g><defs><clipPath id="clip0_63366_1229"><rect width="18" height="18" fill="currentColor" transform="translate(0 0.5)"></rect></clipPath></defs></svg>