<?xml version="1.0" encoding="UTF-8"?>
<svg xmlns="http://www.w3.org/2000/svg" width="470" height="524" viewBox="0 0 470 524" fill="none">
  <g opacity="0.2">
    <path d="M234.65 50.9505L324.265 101.232L369.703 75.8126L234.65 0L9.06449 126.652L54.2734 152.071L234.65 50.9505Z" fill="#73878B"></path>
    <path d="M414.914 101.232L234.652 202.353L145.037 152.071L99.7135 177.491L234.652 253.192L460.352 126.652L414.914 101.232Z" fill="#73878B"></path>
    <path d="M45.3237 271.366L0 245.946L0 397.348L225.586 524V473.161L45.3237 371.929V271.366Z" fill="#73878B"></path>
    <path d="M0 195.105L180.262 296.226V396.789L225.586 422.32V270.806L0 144.266L0 195.105Z" fill="#73878B"></path>
    <path d="M378.77 245.945V195.106L243.717 270.807V523.999L289.04 498.58V296.227L378.77 245.945Z" fill="#73878B"></path>
    <path d="M423.978 169.685V371.927L334.363 422.32V473.159L469.417 397.346V144.266L423.978 169.685Z" fill="#73878B"></path>
  </g>
</svg>
