<?xml version="1.0" encoding="UTF-8"?>
<svg xmlns="http://www.w3.org/2000/svg" width="122" height="31" viewBox="0 0 122 31" fill="none">
  <g clip-path="url(#clip0_62752_2922)">
    <path d="M36 24.6318H40.2894V17.319H46.5943V14.0633H40.2894V9.95471H46.9044L47.111 6.54395H36V24.6318Z" fill="#2E3135"></path>
    <path d="M49.668 24.6314H53.854V4.94141L49.668 5.74241V24.6314Z" fill="#2E3135"></path>
    <path d="M59.4617 5.04492C58.0922 5.04492 57.0586 6.02676 57.0586 7.293C57.0586 8.53332 58.0922 9.51516 59.4617 9.51516C60.7538 9.51516 61.8131 8.5332 61.8131 7.293C61.8131 6.02688 60.7538 5.04492 59.4617 5.04492V5.04492Z" fill="#2E3135"></path>
    <path d="M57.293 24.631H61.479V10.8584L57.293 11.6594V24.631Z" fill="#2E3135"></path>
    <path d="M77.4981 11.1688H73.2087L69.1001 17.6805V4.94141L64.9141 5.74241V24.6314H69.1001V18.1714L73.1828 24.6314H78.0923L73.2087 17.3186L77.4981 11.1688Z" fill="#2E3135"></path>
    <path d="M88.1121 10.8587C86.5619 10.8587 85.1922 11.453 84.1587 12.2282V4.94141L79.9727 5.74241V24.9413L83.3059 23.9595C84.1845 24.5279 85.2698 24.9413 86.6133 24.9413C89.3783 24.9413 93.0733 23.3909 93.0733 17.732C93.0733 13.4685 91.1871 10.8587 88.112 10.8587H88.1121ZM86.3034 21.6081C85.5024 21.6081 84.6755 21.3497 84.1587 20.9621V14.7864C84.7531 14.4504 85.6315 14.1921 86.4068 14.1921C87.9313 14.1921 88.8099 15.2516 88.8099 17.8097C88.8099 20.6262 87.8538 21.6082 86.3035 21.6082L86.3034 21.6081Z" fill="#2E3135"></path>
    <path d="M101.611 10.8584C97.4247 10.8584 94.7891 13.6232 94.7891 17.9126C94.7891 22.202 97.4765 24.941 101.611 24.941C105.797 24.941 108.458 22.2279 108.458 17.9384C108.458 13.6489 105.745 10.8584 101.611 10.8584ZM101.611 21.7628C99.9829 21.7628 99.0267 20.3674 99.0267 17.9126C99.0267 15.4837 99.9829 14.0366 101.611 14.0366C103.265 14.0366 104.221 15.4837 104.221 17.9384C104.221 20.3674 103.265 21.7628 101.611 21.7628Z" fill="#2E3135"></path>
    <path d="M117.451 17.6284L121.74 11.1685H117.761L115.59 14.8119L113.11 10.8584L109.105 11.6078L113.187 17.9901L108.82 24.631H112.825L115.099 20.755L117.502 24.631H121.999L117.451 17.6284Z" fill="#2E3135"></path>
    <path d="M0 3.58801L15.5886 12.5877V6.58813L5.19672 0.587891L0 3.58801Z" fill="#393F45"></path>
    <path d="M0 3.58789L15.5886 12.5875L0.00084 9.58741L0 3.58789Z" fill="#2E3135"></path>
    <path d="M25.9984 12.5869L10.4102 21.5872L15.6059 24.5869L25.9982 18.5874L25.9984 12.5869Z" fill="#73878B"></path>
    <path d="M25.9984 12.5871L10.4102 21.5873L20.8023 9.58789L25.9984 12.5871Z" fill="#2E3135"></path>
    <path d="M5.1966 30.5878L5.19612 12.5879L0.00048 15.5877L0 27.5874L5.1966 30.5878Z" fill="#D8D5D2"></path>
    <path d="M5.19579 30.5878L5.19531 12.5879L10.3911 27.5873L5.19579 30.5878Z" fill="#2E3135"></path>
  </g>
  <defs>
    <clipPath id="clip0_62752_2922">
      <rect width="122" height="30" fill="white" transform="translate(0 0.587891)"></rect>
    </clipPath>
  </defs>
</svg>
