<?xml version="1.0" encoding="UTF-8"?>
<svg xmlns="http://www.w3.org/2000/svg" width="131" height="35" viewBox="0 0 131 35" fill="none">
  <g clip-path="url(#clip0_62752_2920)">
    <path d="M18.822 0.587891C13.7254 0.587891 9.57892 4.7476 9.57892 9.8606C9.57892 12.2337 10.4732 14.4006 11.9401 16.0424H6.49868V19.1333H9.57892C12.9766 19.1333 15.7409 21.9065 15.7409 25.3151C15.7409 28.7237 12.9766 31.4969 9.57892 31.4969C6.18123 31.4969 3.41693 28.7237 3.41693 25.3151H3.41768V0.587891H0.336691V25.3152H0.335938C0.335938 30.4282 4.48231 34.5879 9.57892 34.5879C14.6755 34.5879 18.822 30.4282 18.822 25.3152C18.822 22.9421 17.9277 20.7752 16.4608 19.1334H21.9037V16.0425H18.822C15.4243 16.0425 12.66 13.2694 12.66 9.86067C12.66 6.45198 15.4243 3.67887 18.822 3.67887C22.2197 3.67887 24.984 6.45198 24.984 9.86067H24.9847V34.5879H28.0657V9.8606H28.065C28.065 4.7476 23.9185 0.587891 18.822 0.587891Z" fill="#73878B"></path>
    <path d="M58.9306 15.7875H46.1906V6.25488H43.1289V28.4978H46.1906V18.2944H58.9306V28.4978H61.9923V6.25488H58.9306V15.7875Z" fill="#2E3135"></path>
    <path d="M72.5863 12.6446C68.1519 12.6446 64.8086 16.14 64.8086 21.0122C64.8086 25.8137 68.1519 28.9208 72.727 28.9208C76.563 28.9208 79.1322 26.8024 79.9064 23.307L77.478 23.0247C76.8445 25.3901 75.3313 26.6257 72.7621 26.6257C70.0171 26.6257 67.8704 24.5074 67.7295 21.5064H79.9767V20.3413C79.9767 16.1399 77.478 12.6445 72.5862 12.6445L72.5863 12.6446ZM67.8 19.5999C68.152 17.0579 69.8061 14.8688 72.5863 14.8688C75.5073 14.8688 76.8799 17.1284 76.9855 19.5999H67.8V19.5999Z" fill="#2E3135"></path>
    <path d="M85.5695 6.25488H82.6484V28.4978H85.5695V6.25488Z" fill="#2E3135"></path>
    <path d="M92.1516 6.25488H89.125V9.57381H92.1516V6.25488Z" fill="#2E3135"></path>
    <path d="M92.1163 13.0684H89.1953V28.4973H92.1163V13.0684Z" fill="#2E3135"></path>
    <path d="M103.766 12.6455C101.479 12.6455 99.4022 13.9518 98.6632 15.8231V13.0691H95.7422V28.498H98.6632V19.6362C98.6632 16.8117 100.493 14.9756 102.816 14.9756C105.244 14.9756 106.476 16.5999 106.476 19.1771V28.498H109.397V18.9299C109.397 15.3286 107.778 12.6455 103.766 12.6455V12.6455Z" fill="#2E3135"></path>
    <path d="M119.637 12.6446C115.203 12.6446 111.859 16.14 111.859 21.0122C111.859 25.8137 115.203 28.9208 119.778 28.9208C123.614 28.9208 126.183 26.8024 126.957 23.307L124.529 23.0247C123.895 25.3901 122.382 26.6257 119.813 26.6257C117.068 26.6257 114.921 24.5074 114.78 21.5064H127.028V20.3413C127.028 16.1399 124.529 12.6445 119.637 12.6445V12.6446ZM114.851 19.5999C115.203 17.0579 116.857 14.8688 119.637 14.8688C122.558 14.8688 123.931 17.1284 124.036 19.5999H114.851Z" fill="#2E3135"></path>
    <path d="M128.681 6.25488C127.769 6.25488 127.027 6.99926 127.027 7.91431C127.027 8.82936 127.769 9.57374 128.681 9.57374C129.593 9.57374 130.336 8.82936 130.336 7.91431C130.336 6.99926 129.594 6.25488 128.681 6.25488ZM128.681 9.44582C127.84 9.44582 127.155 8.75879 127.155 7.91431C127.155 7.06982 127.84 6.3828 128.681 6.3828C129.523 6.3828 130.208 7.06982 130.208 7.91431C130.208 8.75879 129.523 9.44582 128.681 9.44582Z" fill="#2E3135"></path>
    <path d="M129.011 8.00679C129.266 7.97687 129.484 7.80748 129.484 7.48523C129.484 7.11312 129.229 6.86719 128.699 6.86719H127.852V8.96038H128.133V8.1165H128.723C129.007 8.1165 129.117 8.27267 129.13 8.50523C129.146 8.75109 129.176 8.90394 129.216 8.96045H129.514C129.445 8.88407 129.435 8.76439 129.408 8.45877C129.388 8.21291 129.266 8.05673 129.011 8.00679H129.011ZM128.683 7.88719H128.133V7.10307H128.683C129.037 7.10307 129.196 7.25592 129.196 7.49513C129.196 7.75436 129.037 7.88719 128.683 7.88719V7.88719Z" fill="#2E3135"></path>
  </g>
  <defs>
    <clipPath id="clip0_62752_2920">
      <rect width="130" height="34" fill="white" transform="translate(0.335938 0.587891)"></rect>
    </clipPath>
  </defs>
</svg>
