<?xml version="1.0" encoding="UTF-8"?>
<svg xmlns="http://www.w3.org/2000/svg" width="140" height="31" viewBox="0 0 140 31" fill="none">
  <g clip-path="url(#clip0_62752_2917)">
    <path d="M29.6742 0.587891H0.835938V5.85098H29.6742V0.587891Z" fill="#73878B"></path>
    <path d="M7.37537 8.48242H0.835938V13.7455H12.0061L1.93807 30.5877H8.05273L14.1193 20.4391C15.5969 17.9676 15.6345 14.9949 14.2198 12.4876C12.8051 9.97902 10.2465 8.48242 7.37513 8.48242H7.37537Z" fill="#73878B"></path>
    <path d="M16.2893 12.4876C14.8746 14.9949 14.9113 17.9676 16.3889 20.4391L22.4555 30.5877H28.5701L18.5031 13.7455H29.6735V8.48242H23.1328C20.2617 8.48242 17.7028 9.97927 16.2893 12.4876V12.4876Z" fill="#73878B"></path>
    <path d="M52.8975 5.85059H36.6523V9.38377H42.8253V25.3642H46.7243V9.38377H52.8975V5.85059Z" fill="#2E3135"></path>
    <path d="M63.348 12.9714C62.8064 12.1744 62.179 11.5764 61.4662 11.1778C60.7529 10.7795 59.9095 10.5801 58.9346 10.5801C57.5808 10.5801 56.4073 10.9063 55.4147 11.5584C54.4219 12.2108 53.659 13.1074 53.1269 14.249C52.5943 15.3905 52.3281 16.6772 52.3281 18.1082C52.3281 19.5392 52.5943 20.8218 53.1269 21.9539C53.659 23.0865 54.4037 23.9834 55.3606 24.6446C56.317 25.3062 57.4453 25.6365 58.7449 25.6365C59.6833 25.6365 60.5455 25.4191 61.3307 24.9841C62.1159 24.5495 62.7882 23.9424 63.3477 23.1633V25.3647H66.5968V10.8517H63.3477V12.9714H63.348ZM62.5764 20.4453C62.2604 21.0977 61.8361 21.596 61.3038 21.94C60.7711 22.2845 60.18 22.4563 59.5303 22.4563C58.5375 22.4563 57.7028 22.0853 57.0259 21.342C56.349 20.5992 56.0105 19.5212 56.0105 18.1079C56.0105 16.6767 56.349 15.594 57.0259 14.8602C57.7028 14.1264 58.5375 13.7595 59.5303 13.7595C60.162 13.7595 60.7439 13.9226 61.2766 14.2488C61.8087 14.575 62.2378 15.0552 62.5625 15.6893C62.8875 16.3237 63.05 17.1208 63.05 18.0809C63.05 19.0051 62.8919 19.793 62.5761 20.4453H62.5764Z" fill="#2E3135"></path>
    <path d="M77.6693 10.5791C76.7125 10.5791 75.8595 10.8012 75.1107 11.2449C74.3615 11.6891 73.7165 12.2734 73.1749 12.9979V10.8509H69.9258V25.3637H73.4726V17.4278C73.4726 16.6123 73.6033 15.9378 73.8651 15.4029C74.1264 14.8688 74.4786 14.4611 74.9211 14.1801C75.3631 13.8992 75.8459 13.7588 76.3695 13.7588C77.2538 13.7588 77.9171 14.0577 78.3596 14.6557C78.8016 15.2534 79.0228 16.1055 79.0228 17.2103V25.3637H82.5697V16.0145C82.5697 14.2751 82.1182 12.9346 81.2159 11.9923C80.3132 11.0506 79.1312 10.5791 77.6691 10.5791H77.6693Z" fill="#2E3135"></path>
    <path d="M95.6748 12.8623C95.1512 12.1378 94.5146 11.5761 93.7659 11.1773C93.0166 10.779 92.2091 10.5795 91.3426 10.5795C90.043 10.5795 88.9146 10.9057 87.9582 11.5578C87.0013 12.2102 86.2567 13.1069 85.7246 14.2485C85.192 15.3899 84.9258 16.6766 84.9258 18.1076C84.9258 19.5387 85.192 20.8212 85.7246 21.9533C86.2567 23.086 87.0013 23.9829 87.9582 24.644C88.9146 25.3056 90.043 25.636 91.3426 25.636C92.281 25.636 93.1432 25.4185 93.9284 24.9836C94.7136 24.5489 95.3858 23.9419 95.9454 23.1628V25.3642H99.1945V5.85059H95.6746V12.8623H95.6748ZM95.1738 20.445C94.8578 21.0974 94.4335 21.5957 93.9012 21.9397C93.3686 22.2842 92.7774 22.456 92.1278 22.456C91.1349 22.456 90.3002 22.085 89.6233 21.3417C88.9464 20.5989 88.6079 19.5209 88.6079 18.1076C88.6079 16.6764 88.9464 15.5937 89.6233 14.8599C90.3002 14.1261 91.1349 13.7592 92.1278 13.7592C92.7594 13.7592 93.3414 13.9223 93.874 14.2485C94.4061 14.5747 94.8352 15.055 95.1599 15.689C95.4849 16.3234 95.6474 17.1205 95.6474 18.0806C95.6474 19.0048 95.4893 19.7927 95.1736 20.445H95.1738Z" fill="#2E3135"></path>
    <path d="M114.156 13.0113C113.533 12.2415 112.765 11.6437 111.854 11.2178C110.942 10.7924 109.918 10.5791 108.781 10.5791C107.409 10.5791 106.191 10.9053 105.126 11.5574C104.061 12.2098 103.221 13.093 102.608 14.2074C101.994 15.3215 101.688 16.6038 101.688 18.0531C101.688 19.5572 101.985 20.8795 102.581 22.0209C103.177 23.1623 104.011 24.0504 105.085 24.6843C106.159 25.3186 107.418 25.6355 108.863 25.6355C110.613 25.6355 112.08 25.1782 113.262 24.263C114.444 23.3483 115.234 22.0753 115.631 20.4446H112.112C111.895 21.2057 111.502 21.7947 110.934 22.2111C110.365 22.6282 109.648 22.8361 108.781 22.8361C108.023 22.8361 107.382 22.6553 106.859 22.2925C106.335 21.9302 105.938 21.3915 105.668 20.6755C105.484 20.1916 105.365 19.6331 105.305 19.0041H115.685C115.848 17.8266 115.789 16.7259 115.51 15.702C115.23 14.6786 114.779 13.7817 114.156 13.0113H114.156ZM105.353 16.721C105.422 16.2457 105.531 15.8144 105.681 15.4302C105.961 14.7147 106.353 14.171 106.859 13.7998C107.364 13.4285 107.986 13.2425 108.727 13.2425C109.647 13.2425 110.396 13.5508 110.974 14.1666C111.552 14.7827 111.858 15.6342 111.894 16.7213H105.352L105.353 16.721Z" fill="#2E3135"></path>
    <path d="M138.497 11.9923C137.604 11.0506 136.426 10.5791 134.964 10.5791C133.881 10.5791 132.951 10.8195 132.175 11.2992C131.399 11.7795 130.731 12.4363 130.171 13.2695C129.828 12.3999 129.282 11.7339 128.533 11.2719C127.784 10.81 126.913 10.5791 125.92 10.5791C124.946 10.5791 124.106 10.7922 123.402 11.2178C122.699 11.6437 122.076 12.2371 121.534 12.9979V10.8509H118.285V25.3637H121.832V17.2376C121.832 16.4948 121.958 15.8651 122.211 15.3488C122.464 14.8324 122.807 14.4382 123.24 14.1664C123.673 13.8946 124.151 13.7588 124.675 13.7588C125.541 13.7588 126.195 14.0535 126.638 14.642C127.08 15.231 127.301 16.0599 127.301 17.1289V25.3637H130.821V17.2376C130.821 16.4948 130.952 15.8651 131.214 15.3488C131.475 14.8324 131.823 14.4382 132.256 14.1664C132.689 13.8946 133.167 13.7588 133.691 13.7588C134.557 13.7588 135.212 14.0535 135.654 14.642C136.096 15.231 136.318 16.0599 136.318 17.1289V25.3637H139.837V16.0145C139.837 14.2751 139.391 12.9346 138.497 11.9923V11.9923Z" fill="#2E3135"></path>
  </g>
  <defs>
    <clipPath id="clip0_62752_2917">
      <rect width="139" height="30" fill="white" transform="translate(0.835938 0.587891)"></rect>
    </clipPath>
  </defs>
</svg>
