<?xml version="1.0" encoding="UTF-8"?>
<svg xmlns="http://www.w3.org/2000/svg" width="102" height="41" viewBox="0 0 102 41" fill="none">
  <g clip-path="url(#clip0_62752_2918)">
    <path d="M17.3336 0.587891H10.0674V3.14109H17.3336C25.1111 3.14109 31.4386 9.44056 31.4386 17.1836C31.4386 24.9267 25.1111 31.2262 17.3336 31.2262C14.7543 31.2262 12.2568 30.5331 10.0674 29.2192V28.22C12.206 29.6224 14.7085 30.3751 17.3336 30.3751C24.6398 30.3751 30.5837 24.4575 30.5837 17.1836C30.5837 9.90976 24.6398 3.99216 17.3336 3.99216H6.64802V6.54536H17.3336C23.2257 6.54536 28.0191 11.3178 28.0191 17.1836C28.0191 23.0495 23.2255 27.8219 17.3336 27.8219C14.6097 27.8219 12.0491 26.8179 10.0674 24.9844V23.7691C11.8667 25.7351 14.4579 26.9708 17.3336 26.9708C22.7542 26.9708 27.1643 22.5803 27.1643 17.1836C27.1643 11.787 22.7542 7.39642 17.3336 7.39642H0.664062V40.5879H3.22861V9.94962H17.3336C21.3401 9.94962 24.5997 13.1948 24.5997 17.1836C24.5997 21.1724 21.3401 24.4176 17.3336 24.4176C13.327 24.4176 10.0674 21.1724 10.0674 17.1836V16.7582H7.50287V33.7795H10.0674V32.1228C12.3198 33.2111 14.7935 33.7795 17.3336 33.7795C26.5252 33.7795 34.0031 26.3347 34.0031 17.1838C34.0031 8.03282 26.5252 0.587891 17.3336 0.587891Z" fill="#73878B"></path>
    <path d="M6.64658 13.3535H4.08203V37.1832H6.64658V13.3535Z" fill="#73878B"></path>
    <path d="M59.0977 23.4916C59.0977 19.0782 61.985 15.8262 66.6222 15.8262C71.2303 15.8262 73.6801 19.0782 73.6801 23.6078V24.1884H62.4224V24.2175C62.5974 26.6564 63.9973 28.3406 66.5639 28.3406C68.4596 28.3406 69.5679 27.4986 70.297 26.0758H73.5926C72.7177 28.9212 70.5011 31.0408 66.6806 31.0408C61.8393 31.0408 59.0978 27.8178 59.0978 23.4915L59.0977 23.4916ZM70.3552 21.9238C69.9762 19.8332 68.8386 18.4395 66.593 18.4395C64.3765 18.4395 63.0058 19.8332 62.539 21.9238H70.3552Z" fill="#2E3135"></path>
    <path d="M78.9463 19.0786V16.117H75.7383V30.751H78.9463V25.6408C78.9463 20.9369 78.9296 18.7302 85.9875 19.1949V15.8848C81.8461 15.8848 80.0838 16.901 78.9463 19.0786V19.0786Z" fill="#2E3135"></path>
    <path d="M86.4103 23.4052C86.4103 18.9047 89.5601 15.7979 93.6139 15.7979C95.8305 15.7979 97.3763 16.6108 98.3969 18.2368H98.426V16.1172H101.663V30.7512H98.426V28.3702H98.3676C97.3178 30.0833 95.8886 31.0416 93.5263 31.0416C89.6182 31.0416 86.4102 27.8767 86.4102 23.4052H86.4103ZM89.6767 23.4052C89.6767 26.2797 91.6015 28.2832 94.1681 28.2832C96.7929 28.2832 98.4553 26.3088 98.4553 23.5213V23.2891C98.4263 20.4725 96.7347 18.5561 94.139 18.5561C91.6017 18.5561 89.6769 20.5596 89.6769 23.4052H89.6767Z" fill="#2E3135"></path>
    <path d="M51.3264 10.4258H43.4062V30.7508H46.9352V24.6036H51.3264C55.2588 24.6036 58.4467 21.4299 58.4467 17.5148C58.4467 13.5998 55.2587 10.426 51.3264 10.426V10.4258ZM50.7808 21.6708H46.9352V13.3583H50.7808C53.0864 13.3583 54.9555 15.2191 54.9555 17.5146C54.9555 19.81 53.0864 21.6708 50.7808 21.6708Z" fill="#2E3135"></path>
  </g>
  <defs>
    <clipPath id="clip0_62752_2918">
      <rect width="101" height="40" fill="white" transform="translate(0.664062 0.587891)"></rect>
    </clipPath>
  </defs>
</svg>
