<?xml version="1.0" encoding="UTF-8"?>
<svg xmlns="http://www.w3.org/2000/svg" width="143" height="31" viewBox="0 0 143 31" fill="none">
  <g clip-path="url(#clip0_62752_2919)">
    <path d="M49.986 17.8443C49.986 19.1876 49.6359 20.2136 48.9365 20.9229C48.2367 21.6323 47.2441 21.9869 45.9584 21.9869C44.6914 21.9869 43.7079 21.6323 43.0087 20.9229C42.3089 20.2136 41.9592 19.1876 41.9592 17.8443V5.58691H37.9883V17.816C37.9883 19.4997 38.338 20.9229 39.0378 22.0862C39.7371 23.2494 40.6873 24.1247 41.8883 24.7107C43.0887 25.2972 44.4269 25.5905 45.9016 25.5905C47.3951 25.5905 48.7521 25.2974 49.9718 24.7107C51.1914 24.1247 52.165 23.2494 52.8932 22.0862C53.6209 20.9229 53.9852 19.4997 53.9852 17.816V5.58691H49.986V17.8443V17.8443Z" fill="#2E3135"></path>
    <path d="M66.5199 9.44546C65.5366 9.44546 64.6339 9.63956 63.8113 10.027C62.9888 10.4149 62.3124 10.9492 61.7833 11.6302V9.67241H57.8125V25.3912H61.7833V16.7091C61.7833 15.4606 62.0998 14.5008 62.7335 13.8292C63.3667 13.1581 64.2317 12.822 65.3286 12.822C66.4064 12.822 67.2575 13.1581 67.8815 13.8292C68.5054 14.5009 68.8174 15.4606 68.8174 16.7091V25.3912H72.7882V16.1698C72.7882 14.0517 72.2113 12.4011 71.0581 11.2186C69.9044 10.0366 68.3919 9.44531 66.5199 9.44531V9.44546Z" fill="#2E3135"></path>
    <path d="M78.5761 3.14648C77.8763 3.14648 77.2946 3.36908 76.8316 3.81338C76.3681 4.25798 76.1367 4.81133 76.1367 5.47313C76.1367 6.13493 76.3681 6.68873 76.8316 7.13303C77.2948 7.57763 77.8763 7.79978 78.5761 7.79978C79.2759 7.79978 79.8568 7.57763 80.3204 7.13303C80.7836 6.68873 81.0152 6.13553 81.0152 5.47313C81.0152 4.81073 80.7836 4.25798 80.3204 3.81338C79.8568 3.36923 79.2754 3.14648 78.5761 3.14648Z" fill="#2E3135"></path>
    <path d="M80.5332 9.67285H76.5625V25.3916H80.5332V9.67285Z" fill="#2E3135"></path>
    <path d="M91.169 12.7933C91.963 12.7933 92.6295 12.9876 93.1686 13.375C93.7077 13.7629 94.0903 14.2971 94.3173 14.9781H98.6003C98.165 13.2189 97.3097 11.8525 96.0332 10.8781C94.7568 9.90404 93.1448 9.41699 91.1974 9.41699C89.6844 9.41699 88.3421 9.75299 87.1698 10.4242C85.9971 11.0958 85.0801 12.0414 84.4184 13.2615C83.7564 14.4814 83.4258 15.9051 83.4258 17.5317C83.4258 19.1583 83.7564 20.5818 84.4184 21.8019C85.0801 23.022 85.9971 23.968 87.1698 24.6393C88.3421 25.311 89.6844 25.6465 91.1974 25.6465C93.126 25.6465 94.733 25.1457 96.0192 24.1428C97.3049 23.1405 98.165 21.7878 98.6003 20.0854H94.3173C93.8254 21.5232 92.776 22.2417 91.1692 22.2417C90.0346 22.2417 89.1362 21.8302 88.4746 21.0073C87.8125 20.1846 87.4819 19.0261 87.4819 17.5317C87.4819 16.0186 87.8125 14.8504 88.4746 14.0275C89.1362 13.2046 90.0346 12.7933 91.1692 12.7933H91.169Z" fill="#2E3135"></path>
    <path d="M112.723 10.4242C111.494 9.75299 110.123 9.41699 108.611 9.41699C107.098 9.41699 105.727 9.75299 104.498 10.4242C103.269 11.0958 102.3 12.0463 101.591 13.2756C100.882 14.5054 100.527 15.9241 100.527 17.5317C100.527 19.1392 100.872 20.5582 101.563 21.7876C102.252 23.0175 103.203 23.9679 104.413 24.6391C105.623 25.3108 106.984 25.6464 108.497 25.6464C110.029 25.6464 111.414 25.3108 112.653 24.6391C113.891 23.9679 114.874 23.0175 115.602 21.7876C116.33 20.5582 116.694 19.1395 116.694 17.5317C116.694 15.9238 116.34 14.5054 115.631 13.2756C114.922 12.0463 113.952 11.0958 112.723 10.4242V10.4242ZM112.043 20.0853C111.664 20.7853 111.158 21.3103 110.525 21.66C109.891 22.0102 109.216 22.1848 108.497 22.1848C107.363 22.1848 106.422 21.7833 105.675 20.979C104.928 20.1751 104.555 19.0261 104.555 17.5317C104.555 16.0372 104.938 14.8884 105.704 14.0844C106.469 13.2807 107.42 12.8785 108.554 12.8785C109.688 12.8785 110.648 13.2807 111.433 14.0844C112.217 14.8885 112.61 16.0377 112.61 17.5317C112.61 18.5346 112.421 19.3857 112.043 20.0853V20.0853Z" fill="#2E3135"></path>
    <path d="M121.631 3.14648C120.931 3.14648 120.349 3.36908 119.886 3.81338C119.423 4.25798 119.191 4.81133 119.191 5.47313C119.191 6.13493 119.423 6.68873 119.886 7.13303C120.349 7.57763 120.931 7.79978 121.631 7.79978C122.331 7.79978 122.911 7.57763 123.375 7.13303C123.838 6.68873 124.07 6.13553 124.07 5.47313C124.07 4.81073 123.838 4.25798 123.375 3.81338C122.911 3.36923 122.33 3.14648 121.631 3.14648Z" fill="#2E3135"></path>
    <path d="M123.588 9.67285H119.617V25.3916H123.588V9.67285Z" fill="#2E3135"></path>
    <path d="M140.773 11.2186C139.619 10.0366 138.107 9.44531 136.235 9.44531C135.251 9.44531 134.349 9.63941 133.526 10.0269C132.704 10.4148 132.027 10.9491 131.498 11.6301V9.67226H127.527V25.3911H131.498V16.7089C131.498 15.4605 131.815 14.5006 132.448 13.8291C133.082 13.158 133.947 12.8218 135.044 12.8218C136.121 12.8218 136.972 13.158 137.596 13.8291C138.22 14.5008 138.532 15.4605 138.532 16.7089V25.3911H142.503V16.1697C142.503 14.0515 141.926 12.4009 140.773 11.2185V11.2186Z" fill="#2E3135"></path>
    <path d="M15.4947 0.587891C11.6175 0.587891 8.08418 2.05999 5.42232 4.47589L12.3484 7.67359C12.9393 7.94644 13.5826 8.08774 14.2335 8.08774H21.4926C22.3208 8.08774 22.9921 8.75929 22.9921 9.58774V21.5877C22.9921 22.4162 22.3208 23.0877 21.4926 23.0877H9.49683C8.66867 23.0877 7.99736 22.4162 7.99736 21.5877V14.3261C7.99736 13.6749 7.85611 13.0316 7.58336 12.4403L4.38663 5.51209C1.97158 8.17474 0.5 11.7093 0.5 15.5879C0.5 23.8722 7.21329 30.5879 15.4947 30.5879C23.7762 30.5879 30.4894 23.8722 30.4894 15.5879C30.4894 7.30354 23.7762 0.587891 15.4947 0.587891Z" fill="#73878D"></path>
  </g>
  <defs>
    <clipPath id="clip0_62752_2919">
      <rect width="142" height="30" fill="white" transform="translate(0.5 0.587891)"></rect>
    </clipPath>
  </defs>
</svg>
