<?xml version="1.0" encoding="UTF-8"?>
<svg xmlns="http://www.w3.org/2000/svg" width="110" height="31" viewBox="0 0 110 31" fill="none">
  <g clip-path="url(#clip0_62752_2916)">
    <path d="M12.9342 15.5879C12.9342 10.9469 15.3994 6.65839 19.4014 4.33789L12.9342 0.587891L0 8.08789V23.0879L12.9342 30.5879L19.4014 26.8379C15.3994 24.5174 12.9342 20.2289 12.9342 15.5879Z" fill="#393F45"></path>
    <path d="M25.8695 0.587891L19.4023 4.33789C23.4043 6.65839 25.8695 10.9469 25.8695 15.5879C25.8695 20.2289 23.4043 24.5174 19.4023 26.8379L25.8695 30.5879L38.8037 23.0879V8.08789L25.8695 0.587891Z" fill="#73878B"></path>
    <path d="M62.9446 26.8421L60.5619 20.5106H51.4227L49.04 26.8421H45.2695L53.9262 4.30371H58.0584L66.7753 26.8421H62.9448H62.9446ZM52.5085 17.3904H59.4762L55.9773 8.18122L52.5086 17.3904H52.5085Z" fill="#2E3135"></path>
    <path d="M67.5977 20.359V10.3018H71.1568V20.3894C71.1568 22.6615 72.4236 23.964 74.5652 23.964C76.767 23.964 78.1243 22.6615 78.1243 20.359V10.3018H81.6834V20.3289C81.6834 24.3881 78.9689 27.2357 74.5652 27.2357C70.1916 27.2357 67.5977 24.3881 67.5977 20.359V20.359Z" fill="#2E3135"></path>
    <path d="M84.3906 10.3018H87.2259L87.5879 12.8768H87.6481C88.7643 10.7866 90.785 10.1201 92.263 10.1201C92.7154 10.1201 93.0775 10.1505 93.4093 10.2111V13.7871H87.9497V26.8423H84.3906V10.3018V10.3018Z" fill="#2E3135"></path>
    <path d="M93.5625 18.6023C93.5625 13.3313 97.1819 9.9082 100.952 9.9082C103.365 9.9082 105.477 11.1198 106.653 13.1495L107.045 10.302H110.001V26.8423H107.045L106.653 23.9947C105.477 26.0242 103.365 27.236 100.952 27.236C97.1819 27.236 93.5625 23.8128 93.5625 18.6025V18.6023ZM106.532 18.5719C106.532 15.4216 104.481 13.1799 101.857 13.1799C99.1726 13.1799 97.1216 15.4216 97.1216 18.5719C97.1216 21.7528 99.1726 23.9642 101.857 23.9642C104.481 23.9642 106.532 21.7528 106.532 18.5719Z" fill="#2E3135"></path>
  </g>
  <defs>
    <clipPath id="clip0_62752_2916">
      <rect width="110" height="30" fill="white" transform="translate(0 0.587891)"></rect>
    </clipPath>
  </defs>
</svg>
