<?xml version="1.0" encoding="UTF-8"?>
<svg xmlns="http://www.w3.org/2000/svg" width="130" height="31" viewBox="0 0 130 31" fill="none">
  <g clip-path="url(#clip0_62752_2921)">
    <path d="M51.3756 21.739V25.3565H36.3711V22.5009L45.4113 12.2745H36.3711V8.6582H51.113V11.6507L42.4079 21.739H51.3756Z" fill="#2E3135"></path>
    <path d="M68.6642 14.5759V25.3609H64.2128V23.0588H64.1153C63.5576 23.9462 61.9209 25.5253 58.6774 25.5253C55.434 25.5253 53.1758 23.6839 53.1758 20.7241C53.1758 17.5019 55.599 15.0366 62.5748 15.0366H64.2128V14.5433C64.2128 12.7345 63.1 11.65 61.2982 11.65C59.5289 11.65 58.4486 12.6027 58.3173 14.05H53.9285C53.9935 10.3019 57.0069 8.22949 61.2982 8.22949C66.0471 8.22949 68.6642 10.5667 68.6642 14.5759ZM64.2128 19.0471V17.8634H62.6086C58.8412 17.8634 57.7609 19.0144 57.7609 20.3952C57.7609 21.6128 58.7437 22.3659 60.2867 22.3659C62.4773 22.3659 64.2128 20.8885 64.2128 19.0471Z" fill="#2E3135"></path>
    <path d="M88.3219 15.102V25.361H83.703V16.0899C83.703 13.7552 82.5564 12.3079 80.7558 12.3079C78.4301 12.3079 76.8247 13.9196 76.8247 16.8782V25.3623H72.207V8.65767H76.8247V11.748C77.8737 9.34805 79.7731 8.2334 82.1638 8.2334C86.1275 8.22964 88.3219 11.025 88.3219 15.102Z" fill="#2E3135"></path>
    <path d="M97.3263 12.274V19.1463C97.3263 20.856 98.3416 21.7823 100.012 21.7823C100.7 21.7823 101.551 21.6832 102.73 21.0581V24.9706C101.681 25.5304 100.372 25.6949 99.2907 25.6949C95.3282 25.6949 92.7075 23.3602 92.7075 19.8091V12.2777H89.7266V8.65765H89.7928C91.7934 8.65765 92.7075 7.83547 92.7075 5.89614V3.66309H97.3263V8.66141H103.058V12.274H97.3263Z" fill="#2E3135"></path>
    <path d="M107.425 0.587891H107.575C108.298 0.587891 108.991 0.876189 109.503 1.38936C110.014 1.90254 110.301 2.59855 110.301 3.32429V3.32429C110.301 3.68358 110.23 4.03935 110.093 4.37128C109.956 4.7032 109.756 5.00478 109.502 5.25878C109.249 5.51278 108.949 5.71422 108.618 5.8516C108.287 5.98898 107.933 6.0596 107.575 6.05944H107.425C107.067 6.0596 106.713 5.98898 106.382 5.8516C106.051 5.71422 105.751 5.51278 105.498 5.25878C105.245 5.00478 105.044 4.7032 104.907 4.37128C104.77 4.03935 104.699 3.68358 104.699 3.32429V3.32429C104.699 2.59855 104.986 1.90254 105.498 1.38936C106.009 0.876189 106.702 0.587891 107.425 0.587891V0.587891ZM105.191 8.65777H109.801V25.3611H105.187L105.191 8.65777Z" fill="#2E3135"></path>
    <path d="M121.04 25.7877C115.734 25.7877 112.426 22.204 112.426 16.9759C112.426 11.8132 115.734 8.22949 121.04 8.22949C125.527 8.22949 128.638 10.8278 129.097 15.0077H124.544C124.217 13.101 123.038 11.8521 120.975 11.8521C118.386 11.8521 116.88 13.9232 116.88 16.981C116.88 20.0387 118.386 22.1098 120.975 22.1098C123.137 22.1098 124.316 20.7956 124.643 18.7207H129.162C128.807 22.9935 125.691 25.7877 121.04 25.7877Z" fill="#2E3135"></path>
    <path d="M24.5276 5.90849C24.9449 6.33636 25.2598 6.85395 25.4483 7.42206C25.6368 7.99017 25.6941 8.5939 25.6158 9.18752C25.5375 9.78115 25.3256 10.3491 24.9963 10.8484C24.6669 11.3476 24.2287 11.7651 23.7149 12.0692C20.0106 14.2555 15.6879 15.1451 11.4255 14.5985C7.163 14.0519 3.20197 12.1 0.164062 9.04908L5.64696 3.43066C7.46244 5.25272 9.82687 6.42139 12.3724 6.75487C14.918 7.08834 17.502 6.56794 19.7224 5.2746C20.4783 4.82748 21.3612 4.64642 22.2312 4.76011C23.1012 4.8738 23.9085 5.27573 24.5251 5.90221L24.5276 5.90849Z" fill="#52696F"></path>
    <path d="M24.501 5.88391C23.7662 5.14661 22.7698 4.73242 21.7308 4.73242C20.6919 4.73242 19.6955 5.14661 18.9606 5.88391L2.33063 22.5785C1.59618 23.3162 1.18359 24.3165 1.18359 25.3594C1.18359 26.4024 1.59618 27.4027 2.33063 28.1404V28.1404C2.69432 28.5058 3.12617 28.7956 3.6015 28.9934C4.07682 29.1911 4.58631 29.2929 5.10084 29.2929C5.61537 29.2929 6.12486 29.1911 6.60018 28.9934C7.07551 28.7956 7.50736 28.5058 7.87105 28.1404L24.501 11.4458C24.865 11.0807 25.1537 10.6472 25.3507 10.17C25.5477 9.69287 25.6491 9.1814 25.6491 8.66488C25.6491 8.14835 25.5477 7.63688 25.3507 7.15971C25.1537 6.68254 24.865 6.24902 24.501 5.88391Z" fill="#C9D6DA"></path>
    <path d="M2.31404 28.1091C1.89669 27.6814 1.58178 27.164 1.39315 26.5961C1.20453 26.0281 1.14714 25.4245 1.22533 24.831C1.30353 24.2374 1.51526 23.6696 1.84448 23.1704C2.1737 22.6712 2.61178 22.2537 3.12553 21.9497C6.8301 19.7638 11.1527 18.8742 15.4152 19.4206C19.6777 19.9669 23.639 21.9183 26.6776 24.9685L21.1922 30.5882C19.3767 28.7661 17.0123 27.5975 14.4667 27.264C11.9212 26.9305 9.33719 27.4509 7.11673 28.7442C6.36001 29.1902 5.47667 29.3699 4.60671 29.2549C3.73674 29.1398 2.9299 28.7366 2.31404 28.1091V28.1091Z" fill="#73878B"></path>
  </g>
  <defs>
    <clipPath id="clip0_62752_2921">
      <rect width="129" height="30" fill="white" transform="translate(0.164062 0.587891)"></rect>
    </clipPath>
  </defs>
</svg>
