<svg xmlns="http://www.w3.org/2000/svg" width="9" height="9" viewBox="0 0 9 9" fill="none"><path d="M7.34877 7.91644C7.34877 8.27537 7.05788 8.56613 6.69898 8.56624L0.846705 8.56693C0.674374 8.56688 0.508669 8.4982 0.386809 8.37634C0.265138 8.25458 0.197051 8.08926 0.196912 7.91713L0.196912 2.06417C0.197195 1.70548 0.487971 1.41447 0.846705 1.41438C1.20569 1.41438 1.49719 1.70587 1.49719 2.06486L1.49719 6.34755L7.45857 0.386171C7.71235 0.132386 8.12381 0.131806 8.37767 0.385481C8.63151 0.639321 8.63151 1.05143 8.37767 1.30527L2.41629 7.26665L6.69898 7.26665C7.05782 7.26676 7.34868 7.5576 7.34877 7.91644Z" fill="currentColor"></path></svg>